<svg id="Layer_1" data-name="Layer 1" xmlns="http://www.w3.org/2000/svg" viewBox="0 0 22 22"><title>w</title><path d="M8.43,6.56h3c.77,0,1.54,0,2.31,0a5.58,5.58,0,0,1-.27,11.14,17.4,17.4,0,0,1-1.91,0,1.26,1.26,0,0,1-1.33-1.27,1.29,1.29,0,0,1,1.38-1.21c.57,0,1.15,0,1.72,0a3.09,3.09,0,0,0,.57-6.12,4.37,4.37,0,0,0-.72-.06H8.45l-.17.23c.46.39,1,.76,1.38,1.18.69.68.73,1.42.15,2s-1.24.42-1.91-.24L4.59,8.86a1.29,1.29,0,0,1,0-2.11L8,3.39A1.24,1.24,0,1,1,9.71,5.1L8.47,6.38A.94.94,0,0,0,8.43,6.56Z" fill="#071b36"/></svg>