<svg xmlns="http://www.w3.org/2000/svg" viewBox="0 0 1024 768"><title>bgCHAT</title><g id="Layer_1" data-name="Layer 1"><g opacity="0.07"><path d="M261.64,99.65l-.24-1.82a5.2,5.2,0,1,0-1.35-10.31l-.24-1.82a7,7,0,0,1,1.83,14Z" fill="#535860"/><path d="M87.88,293.25a10.09,10.09,0,0,1-8.77-5.15l2.28-1.27a7.42,7.42,0,0,0,13-7.23l2.28-1.27a10,10,0,0,1-8.75,14.92Z" fill="#535860"/><path d="M320.54,232.15A10.22,10.22,0,1,1,334.28,217l-1.79,2a7.55,7.55,0,0,0-10.16,11.18Z" fill="#535860"/><path d="M101.59,15.62a5.41,5.41,0,0,1-.32-10.81l.09,1.41A4,4,0,0,0,98.6,7.55a4,4,0,0,0,.34,5.65,4,4,0,0,0,2.89,1l.09,1.41Z" fill="#535860"/><path d="M366.13,197.83,365,196.3a5.37,5.37,0,0,0-6.33-8.67l-1.11-1.53a7.26,7.26,0,1,1,8.55,11.73Z" fill="#535860"/><path d="M210.65,235.41,209.11,233a8.09,8.09,0,1,0-8.75-13.6l-1.54-2.4a10.93,10.93,0,0,1,11.83,18.39Z" fill="#535860"/><path d="M7.15,36.39a5.56,5.56,0,0,1-4.73-2.61L3.65,33a4.09,4.09,0,0,0,2.58,1.82,4,4,0,0,0,3.1-.53,4.12,4.12,0,0,0,1.3-5.68l1.23-.77a5.58,5.58,0,0,1-4.71,8.54Z" fill="#535860"/><path d="M352.14,67.72a7.24,7.24,0,0,1,11.31-9L362,59.86a5.35,5.35,0,0,0-7.52-.83,5.33,5.33,0,0,0-.84,7.51Z" fill="#535860"/><path d="M154.57,231.26a11.43,11.43,0,1,1,14.54-17.63l-1.89,2.3a8.45,8.45,0,1,0-10.75,13Z" fill="#535860"/><path d="M312.36,13.07h0a4.31,4.31,0,0,1,1.95,8.15,4.39,4.39,0,0,1-1.94.46,4.31,4.31,0,0,1-1.95-8.15,4.36,4.36,0,0,1,1.94-.46m0-1.92a6.14,6.14,0,0,0-2.81.67,6.23,6.23,0,1,0,2.81-.67Z" fill="#535860"/><path d="M66.81,134h0l.37,0a3.46,3.46,0,0,1-.36,6.9l-.37,0a3.46,3.46,0,0,1,.36-6.9m0-1.54a5,5,0,0,0-.52,10,4.78,4.78,0,0,0,.53,0,5,5,0,0,0,.52-10,4.71,4.71,0,0,0-.53,0Z" fill="#535860"/><path d="M340.38,107.74a3.62,3.62,0,0,1,1,7.09,3.48,3.48,0,0,1-1,.15,3.62,3.62,0,0,1-1-7.1,3.85,3.85,0,0,1,1-.14m0-1.62a5.31,5.31,0,0,0-1.46.21,5.23,5.23,0,0,0,1.46,10.26,5.29,5.29,0,0,0,1.46-.2,5.24,5.24,0,0,0-1.46-10.27Z" fill="#535860"/><path d="M158.65,9.3h0a5.39,5.39,0,0,1,5.07,3.52,5.36,5.36,0,0,1-.14,4.14,5.45,5.45,0,0,1-4.94,3.18,5.26,5.26,0,0,1-2.24-.49A5.42,5.42,0,0,1,158.65,9.3m0-2.42a7.83,7.83,0,1,0,3.24.7,7.84,7.84,0,0,0-3.24-.7Z" fill="#535860"/><path d="M262.68,173.29h0a4,4,0,0,1,.69.06,4,4,0,0,1-.67,7.9,4,4,0,0,1-.69-.06,4,4,0,0,1,.67-7.9m0-1.77a5.75,5.75,0,0,0-1,11.42,5.52,5.52,0,0,0,1,.09,5.76,5.76,0,0,0,1-11.43,5.51,5.51,0,0,0-1-.08Z" fill="#535860"/><path d="M63.38,181.78h0a4.7,4.7,0,1,1-2.9,8.39,4.69,4.69,0,0,1,2.9-8.39m0-2.09a6.79,6.79,0,1,0,4.19,1.45,6.76,6.76,0,0,0-4.19-1.45Z" fill="#535860"/><path d="M19.35,340.87h0a3.27,3.27,0,1,1-3.24,2.83,3.28,3.28,0,0,1,3.24-2.83m0-1.45a4.72,4.72,0,1,0,3.77,1.86,4.75,4.75,0,0,0-3.77-1.86Z" fill="#535860"/><path d="M177.63,81.31h0a5.93,5.93,0,1,1-5.37,3.42,5.85,5.85,0,0,1,3.34-3.06,5.91,5.91,0,0,1,2-.36m0-2.65a8.57,8.57,0,1,0,8.05,5.64,8.64,8.64,0,0,0-8.05-5.64Z" fill="#535860"/><path d="M179.49,329.18h0a3.26,3.26,0,0,1,1.49.35,3.3,3.3,0,0,1,1.7,1.94,3.39,3.39,0,0,1-4.69,4.12,3.38,3.38,0,0,1,1.5-6.41m0-1.51a4.88,4.88,0,1,0,2.15.5,4.88,4.88,0,0,0-2.15-.5Z" fill="#535860"/><path d="M133.79,56.77l5.48,6-8.13.75-5.48-6.06,8.13-.74m.82-2.1-13.14,1.21,8.85,9.78,13.14-1.21-8.85-9.78Z" fill="#535860"/><path d="M12.43,251.28,18,257.21l-1.39,8.05-5.6-5.94,1.38-8M11.13,247,8.9,260,18,269.56l2.23-13L11.13,247Z" fill="#535860"/><path d="M312.08,334.89,323,340.27l2.22,11.93-10.87-5.38-2.22-11.93m-4-5.33,3.58,19.27,17.57,8.7-3.58-19.27-17.57-8.7Z" fill="#535860"/><path d="M67.69,52.61l5.94,2.1,1.88,6-5.93-2.09-1.89-6m-2.41-2.49,3,9.7,9.59,3.38-3-9.7-9.59-3.38Z" fill="#535860"/><path d="M182.25,257.23l.85,7.18-5.23,5-.85-7.18,5.23-5m1.35-3.75-8.46,8.06,1.38,11.6,8.45-8.06-1.37-11.6Z" fill="#535860"/><path d="M107.61,182.39l5.73,3.18.9,6.49-5.73-3.17-.9-6.5m-2-3L107,189.91l9.26,5.13-1.45-10.49-9.26-5.13Z" fill="#535860"/><path d="M131.43,348l-2.68,5.49-6,1.15,2.68-5.49,6-1.15m2.67-2-9.7,1.86-4.33,8.87,9.7-1.86L134.1,346Z" fill="#535860"/><path d="M195.74,144.46,189,154.62l-12.19.68,6.77-10.16,12.19-.68m5.83-3.34-19.69,1.1-10.94,16.42,19.7-1.1,10.93-16.42Z" fill="#535860"/><path d="M40.22,6.42l8,8.31L46.36,26.1l-8-8.3L40.22,6.42M38.33.35l-3,18.39L48.25,32.17l3-18.39L38.33.35Z" fill="#535860"/><path d="M17,85.9a1.37,1.37,0,0,1-1.25-2,6,6,0,0,1,8.61-2.68A3.29,3.29,0,0,0,27,81.6a3.33,3.33,0,0,0,2-1.81,6,6,0,0,1,8.61-2.68,1.38,1.38,0,0,1-1.4,2.38,3.29,3.29,0,0,0-2.69-.34,3.33,3.33,0,0,0-2,1.81,6,6,0,0,1-8.61,2.68,3.34,3.34,0,0,0-2.69-.35,3.28,3.28,0,0,0-2,1.81A1.38,1.38,0,0,1,17,85.9Z" fill="#535860"/><path d="M287.88,145.07h0a.9.9,0,0,1-.86-.94,2.12,2.12,0,0,0-2.3-2.25,4,4,0,0,1-3-1.11,3.93,3.93,0,0,1-1.17-3,2.14,2.14,0,0,0-2.31-2.25.92.92,0,0,1-.94-.85.9.9,0,0,1,.84-.95,3.92,3.92,0,0,1,4.21,4.12,2.14,2.14,0,0,0,.63,1.65,2.16,2.16,0,0,0,1.67.6,4,4,0,0,1,3,1.12,3.94,3.94,0,0,1,1.17,3A.9.9,0,0,1,287.88,145.07Z" fill="#535860"/><path d="M268.44,317.53a.82.82,0,0,1,0-1.63,2,2,0,0,0,1.47-.65,2,2,0,0,0,.47-1.54,3.56,3.56,0,0,1,3.54-4,1.93,1.93,0,0,0,1.93-2.18.82.82,0,0,1,.72-.9.8.8,0,0,1,.9.72,3.56,3.56,0,0,1-3.53,4,2,2,0,0,0-1.47.65,2,2,0,0,0-.47,1.54,3.56,3.56,0,0,1-3.54,4Z" fill="#535860"/><path d="M58,247.81a1.29,1.29,0,0,1-.81-.28,5.6,5.6,0,0,1-.5-8.38,3.06,3.06,0,0,0,.91-2.36,3.1,3.1,0,0,0-1.18-2.23,5.68,5.68,0,0,1-2.14-4.08,5.63,5.63,0,0,1,1.65-4.3A1.28,1.28,0,1,1,57.8,228a3,3,0,0,0,.27,4.58,5.6,5.6,0,0,1,.5,8.38,3,3,0,0,0,.27,4.59,1.29,1.29,0,0,1,.2,1.81A1.3,1.3,0,0,1,58,247.81Z" fill="#535860"/><path d="M72,338.78a6.56,6.56,0,0,1-6.6-6.3,3.57,3.57,0,0,0-4.2-3.4,6.6,6.6,0,0,1-7.67-6.23,1.5,1.5,0,0,1,1.42-1.59,1.52,1.52,0,0,1,1.6,1.42,3.57,3.57,0,0,0,4.2,3.41,6.6,6.6,0,0,1,7.67,6.22,3.57,3.57,0,0,0,4.2,3.4A1.52,1.52,0,0,1,74.3,337,1.5,1.5,0,0,1,73,338.7,6.51,6.51,0,0,1,72,338.78Z" fill="#535860"/><path d="M9.13,132.63H9a1,1,0,0,1,.06-2A2.41,2.41,0,0,0,11.58,128a4.48,4.48,0,0,1,1.25-3.45,4.53,4.53,0,0,1,3.4-1.35,2.49,2.49,0,0,0,1.88-.73,2.46,2.46,0,0,0,.67-1.9,1,1,0,1,1,2-.13,4.47,4.47,0,0,1-4.65,4.8,2.43,2.43,0,0,0-1.87.73,2.5,2.5,0,0,0-.68,1.9,4.51,4.51,0,0,1-1.24,3.45A4.45,4.45,0,0,1,9.13,132.63Z" fill="#535860"/><path d="M133.37,142.23a4.73,4.73,0,0,1-4.64-3.74,2.58,2.58,0,0,0-3.42-1.89,4.78,4.78,0,0,1-6.26-3.47,1.09,1.09,0,1,1,2.13-.5,2.58,2.58,0,0,0,3.43,1.89,4.78,4.78,0,0,1,6.25,3.47,2.58,2.58,0,0,0,3.42,1.9,1.1,1.1,0,0,1,1.39.69A1.09,1.09,0,0,1,135,142,5,5,0,0,1,133.37,142.23Z" fill="#535860"/><path d="M18.83,190.86a1.3,1.3,0,0,1-.94-.4,5.75,5.75,0,0,1,.49-8.6,3.19,3.19,0,0,0,1.21-2.3,3.12,3.12,0,0,0-.94-2.41A5.81,5.81,0,0,1,17,172.73a5.74,5.74,0,0,1,2.19-4.19,1.32,1.32,0,0,1,1.66,2.05,3.13,3.13,0,0,0-1.22,2.29,3.18,3.18,0,0,0,.95,2.42,5.77,5.77,0,0,1-.49,8.61,3.13,3.13,0,0,0-1.22,2.29,3.21,3.21,0,0,0,1,2.42,1.31,1.31,0,0,1,0,1.86A1.33,1.33,0,0,1,18.83,190.86Z" fill="#535860"/><path d="M211.2,59a5.88,5.88,0,0,1-2-.36,1.27,1.27,0,0,1,.88-2.38,3,3,0,0,0,4-2.1,5.53,5.53,0,0,1,7.34-3.82,3,3,0,0,0,4-2.09A1.28,1.28,0,0,1,227,47.3a1.27,1.27,0,0,1,.9,1.55,5.53,5.53,0,0,1-7.34,3.83,3,3,0,0,0-4,2.09,5.54,5.54,0,0,1-2.82,3.57A5.46,5.46,0,0,1,211.2,59Z" fill="#535860"/><path d="M280.81,207.92a.78.78,0,0,1-.51-.2l-4.88-4.48a.75.75,0,1,1,1-1.11l4.89,4.49a.75.75,0,0,1,0,1.06A.74.74,0,0,1,280.81,207.92Z" fill="#535860"/><path d="M120.89,243.67a.8.8,0,0,1-.59-.27l-4.63-5.24a.78.78,0,0,1,.07-1.11.79.79,0,0,1,1.11.06l4.63,5.24a.8.8,0,0,1-.59,1.32Z" fill="#535860"/><path d="M88.36,98a.94.94,0,0,1-.21-1.85l8.11-1.88a.94.94,0,1,1,.42,1.83l-8.11,1.88A.75.75,0,0,1,88.36,98Z" fill="#535860"/><path d="M256.77,26.45a.89.89,0,0,1-.21-1.76l7.68-1.84a.89.89,0,1,1,.42,1.73L257,26.43A.75.75,0,0,1,256.77,26.45Z" fill="#535860"/><path d="M358.85,326a.82.82,0,0,1-.8-.63l-1.68-7a.82.82,0,1,1,1.59-.38l1.69,7a.83.83,0,0,1-.61,1A.62.62,0,0,1,358.85,326Z" fill="#535860"/><path d="M226.5,333.94a.8.8,0,0,1-.72-.47l-2.85-6.41a.79.79,0,1,1,1.45-.65l2.84,6.41a.79.79,0,0,1-.4,1.05A.88.88,0,0,1,226.5,333.94Z" fill="#535860"/><path d="M223.38,283.88a1.33,1.33,0,0,1-.08-2.65l11.71-.68a1.32,1.32,0,0,1,1.4,1.24,1.33,1.33,0,0,1-1.25,1.4l-11.7.69Z" fill="#535860"/><path d="M146.71,299.85a.7.7,0,0,1-.67-.51l-1.76-6a.7.7,0,0,1,1.35-.4l1.76,6a.71.71,0,0,1-.48.87A.64.64,0,0,1,146.71,299.85Z" fill="#535860"/><path d="M365.77,257.61h-.14l-10.2-1.23a1.16,1.16,0,0,1-1-1.29,1.17,1.17,0,0,1,1.3-1l10.2,1.22a1.16,1.16,0,0,1-.14,2.32Z" fill="#535860"/><polygon points="315.34 178.05 313.2 175.93 323.99 165.07 334.85 175.87 332.72 178 324.01 169.34 315.34 178.05" fill="#535860"/><polygon points="268.61 262.88 266.67 261.77 271.19 253.87 263.29 249.35 264.4 247.41 274.24 253.04 268.61 262.88" fill="#535860"/><polygon points="205.73 368.18 199.87 359.98 201.49 358.83 206.19 365.41 212.77 360.7 213.93 362.31 205.73 368.18" fill="#535860"/><polygon points="306.09 69.94 295.33 67.91 297.36 57.15 299.48 57.55 297.85 66.19 306.49 67.82 306.09 69.94" fill="#535860"/><polygon points="216.62 13.7 206.12 4.89 207.85 2.82 216.29 9.89 223.36 1.45 225.43 3.19 216.62 13.7" fill="#535860"/><polygon points="225.41 125.28 224.06 117.57 216.35 118.91 216.02 117.02 225.62 115.35 227.3 124.95 225.41 125.28" fill="#535860"/><polygon points="360.83 18.26 352.43 11.59 353.74 9.93 360.49 15.29 365.85 8.53 367.5 9.85 360.83 18.26" fill="#535860"/><polygon points="269.69 362.79 265.6 355.1 257.91 359.2 256.9 357.31 266.48 352.21 271.58 361.78 269.69 362.79" fill="#535860"/><polygon points="317.32 278.42 306.79 267.98 308.85 265.91 317.31 274.29 325.69 265.84 327.76 267.89 317.32 278.42" fill="#535860"/></g><g opacity="0.07"><path d="M270.29,485.3l-.24-1.82a5.2,5.2,0,1,0-1.35-10.31l-.23-1.82a7,7,0,1,1,1.82,13.95Z" fill="#535860"/><path d="M96.54,678.9a10.44,10.44,0,0,1-2.76-.38,10,10,0,0,1-6-4.77l2.29-1.27a7.41,7.41,0,0,0,10.08,2.86A7.42,7.42,0,0,0,103,665.26l2.28-1.28a10,10,0,0,1-8.74,14.92Z" fill="#535860"/><path d="M329.19,617.8a10.22,10.22,0,0,1,13.74-15.13l-1.79,2A7.55,7.55,0,1,0,331,615.83Z" fill="#535860"/><path d="M110.24,401.27a5.4,5.4,0,0,1-4-9,5.35,5.35,0,0,1,3.73-1.81l.08,1.41a4,4,0,0,0-2.75,1.33,4,4,0,0,0,.33,5.65,4,4,0,0,0,2.9,1l.08,1.41Z" fill="#535860"/><path d="M374.79,583.48,373.67,582a5.37,5.37,0,1,0-6.33-8.67l-1.11-1.53a7.26,7.26,0,0,1,8.56,11.73Z" fill="#535860"/><path d="M219.3,621.06l-1.54-2.39a8.08,8.08,0,1,0-8.74-13.6l-1.55-2.4a10.93,10.93,0,1,1,11.83,18.39Z" fill="#535860"/><path d="M15.8,422a5.57,5.57,0,0,1-4.73-2.61l1.23-.77a4.12,4.12,0,0,0,7-4.39l1.23-.77A5.58,5.58,0,0,1,15.8,422Z" fill="#535860"/><path d="M360.8,453.38a7.25,7.25,0,0,1,1.13-10.18,7.26,7.26,0,0,1,10.18,1.13l-1.48,1.18a5.35,5.35,0,0,0-7.52-.83,5.29,5.29,0,0,0-2,3.58,5.35,5.35,0,0,0,1.14,3.93Z" fill="#535860"/><path d="M163.22,616.91a11.43,11.43,0,0,1,14.55-17.63l-1.9,2.3a8.45,8.45,0,1,0-10.75,13Z" fill="#535860"/><path d="M321,398.72h0a4.31,4.31,0,0,1,1.95,8.15,4.36,4.36,0,0,1-1.94.46,4.31,4.31,0,0,1-1.95-8.15,4.36,4.36,0,0,1,1.94-.46m0-1.92a6.23,6.23,0,1,0,0,12.45,6.23,6.23,0,1,0,0-12.45Z" fill="#535860"/><path d="M75.46,519.61h0l.37,0a3.45,3.45,0,0,1,2.33,1.27,3.41,3.41,0,0,1,.75,2.53,3.45,3.45,0,0,1-3.44,3.1l-.36,0a3.46,3.46,0,0,1,.35-6.9m0-1.54a5,5,0,0,0-.52,10,4.78,4.78,0,0,0,.53,0,5,5,0,0,0,.52-10,4.71,4.71,0,0,0-.53,0Z" fill="#535860"/><path d="M349,493.39a3.62,3.62,0,0,1,1,7.09,3.48,3.48,0,0,1-1,.15,3.62,3.62,0,0,1-1-7.1,3.86,3.86,0,0,1,1-.14m0-1.62a5.31,5.31,0,0,0-1.46.21,5.23,5.23,0,1,0,1.46-.21Z" fill="#535860"/><path d="M167.3,395h0a5.39,5.39,0,0,1,5.07,3.52,5.36,5.36,0,0,1-.14,4.14,5.45,5.45,0,0,1-4.94,3.18,5.29,5.29,0,0,1-2.24-.49A5.42,5.42,0,0,1,167.3,395m0-2.42a7.83,7.83,0,1,0,3.24.7,8,8,0,0,0-3.24-.7Z" fill="#535860"/><path d="M271.34,558.94h0a4,4,0,0,1,0,8,5.34,5.34,0,0,1-.69,0,4,4,0,0,1,.68-7.91m0-1.77a5.76,5.76,0,0,0-1,11.43,6.61,6.61,0,0,0,1,.08,5.76,5.76,0,0,0,1-11.43,5.47,5.47,0,0,0-1-.08Z" fill="#535860"/><path d="M72,567.43h0a4.69,4.69,0,0,1,4.65,4.13,4.69,4.69,0,0,1-7.55,4.26,4.69,4.69,0,0,1,2.9-8.39m0-2.09a6.79,6.79,0,1,0,4.18,1.45A6.77,6.77,0,0,0,72,565.34Z" fill="#535860"/><path d="M28,726.53h0a3.26,3.26,0,0,1,3.24,3.71,3.27,3.27,0,0,1-5.84,1.54,3.27,3.27,0,0,1,.62-4.59,3.3,3.3,0,0,1,2-.66m0-1.46a4.73,4.73,0,0,0,0,9.46,4.73,4.73,0,1,0,0-9.46Z" fill="#535860"/><path d="M186.28,467h0a5.93,5.93,0,1,1-5.37,3.42,5.93,5.93,0,0,1,5.37-3.42m0-2.65a8.57,8.57,0,1,0,8.05,5.64,8.59,8.59,0,0,0-8.05-5.64Z" fill="#535860"/><path d="M188.14,714.83h0a3.23,3.23,0,0,1,1.49.35,3.3,3.3,0,0,1,1.7,1.94,3.37,3.37,0,0,1-3.2,4.47,3.36,3.36,0,0,1-1.49-.35,3.38,3.38,0,0,1,1.5-6.41m0-1.51a4.88,4.88,0,1,0,2.15.5,4.89,4.89,0,0,0-2.15-.5Z" fill="#535860"/><path d="M142.44,442.42l5.48,6.05-8.13.75-5.47-6.06,8.12-.74m.82-2.1-13.14,1.21,8.85,9.78,13.14-1.21-8.85-9.78Z" fill="#535860"/><path d="M21.08,636.93l5.61,5.93-1.38,8L19.7,645l1.38-8m-1.3-4.31-2.23,13,9.06,9.6,2.23-13-9.06-9.59Z" fill="#535860"/><path d="M320.73,720.54l10.87,5.38,2.22,11.93L323,732.47l-2.22-11.93m-4-5.33,3.59,19.27,17.56,8.7-3.58-19.27-17.57-8.7Z" fill="#535860"/><path d="M76.34,438.27l5.94,2.09,1.89,6-5.94-2.09-1.89-6m-2.41-2.5,3,9.7,9.6,3.38-3.06-9.7-9.59-3.38Z" fill="#535860"/><path d="M190.9,642.88l.85,7.18-5.23,5-.85-7.18,5.23-5m1.35-3.75-8.45,8.06,1.37,11.6,8.46-8.06-1.38-11.6Z" fill="#535860"/><path d="M116.26,568l5.73,3.18.9,6.49-5.73-3.17-.9-6.5m-2-3,1.45,10.49,9.27,5.13-1.46-10.49-9.26-5.13Z" fill="#535860"/><path d="M140.08,733.69l-2.68,5.49-6,1.15,2.68-5.49,6-1.15m2.67-2-9.69,1.86-4.33,8.87,9.69-1.86,4.33-8.87Z" fill="#535860"/><path d="M204.39,530.11l-6.77,10.16-12.19.68,6.77-10.16,12.19-.68m5.83-3.34-19.69,1.1L179.6,544.29l19.69-1.1,10.93-16.42Z" fill="#535860"/><path d="M48.87,392.07l8,8.31L55,411.75l-8-8.3,1.85-11.38M47,386l-3,18.39L56.9,417.82l3-18.39L47,386Z" fill="#535860"/><path d="M25.62,471.55a1.37,1.37,0,0,1-1.25-2A6,6,0,0,1,33,466.91a3.27,3.27,0,0,0,4.71-1.47,6,6,0,0,1,8.61-2.68,1.38,1.38,0,1,1-1.4,2.38,3.27,3.27,0,0,0-2.68-.34,3.32,3.32,0,0,0-2,1.81,6,6,0,0,1-8.61,2.68,3.25,3.25,0,0,0-4.71,1.46A1.37,1.37,0,0,1,25.62,471.55Z" fill="#535860"/><path d="M296.53,530.72h0a.91.91,0,0,1-.87-.94,2.12,2.12,0,0,0-2.3-2.25,3.92,3.92,0,0,1-4.2-4.12,2.18,2.18,0,0,0-.63-1.65,2.23,2.23,0,0,0-1.67-.6.93.93,0,0,1-.95-.85.9.9,0,0,1,.85-.95,4,4,0,0,1,3,1.12,3.94,3.94,0,0,1,1.17,3,2.14,2.14,0,0,0,.63,1.65,2.18,2.18,0,0,0,1.67.6,3.93,3.93,0,0,1,4.2,4.12A.9.9,0,0,1,296.53,530.72Z" fill="#535860"/><path d="M277.1,703.18a.82.82,0,1,1,0-1.63,1.93,1.93,0,0,0,1.93-2.19,3.56,3.56,0,0,1,3.54-4,2,2,0,0,0,1.46-.65,1.9,1.9,0,0,0,.47-1.53.82.82,0,0,1,.73-.9.81.81,0,0,1,.9.72,3.55,3.55,0,0,1-3.54,4,1.93,1.93,0,0,0-1.94,2.19,3.55,3.55,0,0,1-3.53,4Z" fill="#535860"/><path d="M66.69,633.46a1.31,1.31,0,0,1-.81-.28,5.68,5.68,0,0,1-2.14-4.08,5.61,5.61,0,0,1,1.65-4.3,3.14,3.14,0,0,0,.91-2.36,3.08,3.08,0,0,0-1.19-2.23,5.61,5.61,0,0,1-.49-8.38,1.28,1.28,0,1,1,1.83,1.8,3,3,0,0,0,.28,4.58,5.64,5.64,0,0,1,2.13,4.08,5.57,5.57,0,0,1-1.64,4.3,3,3,0,0,0,.28,4.59,1.28,1.28,0,0,1-.81,2.28Z" fill="#535860"/><path d="M80.61,724.43A6.58,6.58,0,0,1,76.44,723,6.66,6.66,0,0,1,74,718.13a3.57,3.57,0,0,0-4.2-3.4,6.6,6.6,0,0,1-7.67-6.23,1.51,1.51,0,0,1,3-.17,3.58,3.58,0,0,0,4.2,3.41A6.58,6.58,0,0,1,77,718a3.57,3.57,0,0,0,4.2,3.4,1.51,1.51,0,0,1,.46,3A6.71,6.71,0,0,1,80.61,724.43Z" fill="#535860"/><path d="M17.78,518.28h-.16a1,1,0,1,1,.07-2,2.43,2.43,0,0,0,1.87-.73,2.46,2.46,0,0,0,.67-1.9,4.48,4.48,0,0,1,1.25-3.45,4.53,4.53,0,0,1,3.4-1.35,2.49,2.49,0,0,0,1.88-.73,2.46,2.46,0,0,0,.67-1.9,1,1,0,0,1,1-1.09,1,1,0,0,1,1.08,1,4.45,4.45,0,0,1-4.65,4.8,2.44,2.44,0,0,0-1.87.73,2.5,2.5,0,0,0-.68,1.9,4.45,4.45,0,0,1-4.49,4.8Z" fill="#535860"/><path d="M142,527.88a4.73,4.73,0,0,1-4.64-3.74,2.58,2.58,0,0,0-3.42-1.89,4.79,4.79,0,0,1-6.26-3.47,1.11,1.11,0,0,1,.82-1.32,1.09,1.09,0,0,1,1.31.82,2.58,2.58,0,0,0,3.43,1.89,4.77,4.77,0,0,1,6.25,3.47,2.6,2.6,0,0,0,1.28,1.73,2.63,2.63,0,0,0,2.15.17,1.09,1.09,0,0,1,1.38.69,1.08,1.08,0,0,1-.68,1.38A5.1,5.1,0,0,1,142,527.88Z" fill="#535860"/><path d="M27.49,576.51a1.3,1.3,0,0,1-.95-.4,5.74,5.74,0,0,1,.5-8.6,3.12,3.12,0,0,0,.27-4.71,5.75,5.75,0,0,1,.49-8.61,1.32,1.32,0,0,1,1.66,2,3.12,3.12,0,0,0-.27,4.71,5.77,5.77,0,0,1-.49,8.61,3.1,3.1,0,0,0-.27,4.71,1.31,1.31,0,0,1,0,1.86A1.33,1.33,0,0,1,27.49,576.51Z" fill="#535860"/><path d="M219.85,444.61a5.83,5.83,0,0,1-2-.36,1.27,1.27,0,0,1,.87-2.38,3,3,0,0,0,4-2.1,5.54,5.54,0,0,1,7.35-3.82,3,3,0,0,0,4-2.09,1.28,1.28,0,0,1,1.55-.91,1.27,1.27,0,0,1,.9,1.55,5.53,5.53,0,0,1-7.34,3.83,3,3,0,0,0-4,2.09,5.54,5.54,0,0,1-2.82,3.57A5.46,5.46,0,0,1,219.85,444.61Z" fill="#535860"/><path d="M289.46,593.57a.74.74,0,0,1-.5-.2l-4.89-4.48a.75.75,0,1,1,1-1.1l4.89,4.48a.75.75,0,0,1-.51,1.3Z" fill="#535860"/><path d="M129.54,629.32a.78.78,0,0,1-.59-.27l-4.63-5.24a.78.78,0,0,1,.07-1.11.8.8,0,0,1,1.12.06l4.62,5.24a.8.8,0,0,1-.06,1.12A.81.81,0,0,1,129.54,629.32Z" fill="#535860"/><path d="M97,483.6a.94.94,0,0,1-.21-1.85l8.11-1.88a.94.94,0,0,1,1.13.71.93.93,0,0,1-.71,1.12l-8.11,1.88A.75.75,0,0,1,97,483.6Z" fill="#535860"/><path d="M265.42,412.11a.9.9,0,0,1-.21-1.77l7.68-1.84a.89.89,0,0,1,1.08.66.88.88,0,0,1-.66,1.07l-7.68,1.85A.76.76,0,0,1,265.42,412.11Z" fill="#535860"/><path d="M367.5,711.61a.82.82,0,0,1-.8-.62l-1.68-7a.82.82,0,1,1,1.6-.38l1.68,7a.83.83,0,0,1-.61,1A.62.62,0,0,1,367.5,711.61Z" fill="#535860"/><path d="M235.15,719.59a.8.8,0,0,1-.72-.47l-2.85-6.41a.79.79,0,1,1,1.45-.65l2.85,6.41a.81.81,0,0,1-.41,1A.88.88,0,0,1,235.15,719.59Z" fill="#535860"/><path d="M232,669.53a1.33,1.33,0,0,1-.08-2.65l11.71-.68a1.32,1.32,0,1,1,.16,2.64l-11.71.69Z" fill="#535860"/><path d="M155.37,685.5a.7.7,0,0,1-.68-.51l-1.76-6a.7.7,0,0,1,1.35-.4l1.76,6a.7.7,0,0,1-.48.87A.63.63,0,0,1,155.37,685.5Z" fill="#535860"/><path d="M374.43,643.26h-.14L364.08,642a1.16,1.16,0,1,1,.28-2.3l10.2,1.22a1.16,1.16,0,0,1-.13,2.32Z" fill="#535860"/><polygon points="323.99 563.7 321.85 561.58 332.65 550.72 343.5 561.51 341.38 563.65 332.66 554.99 323.99 563.7" fill="#535860"/><polygon points="277.26 648.53 275.33 647.42 279.85 639.52 271.94 635 273.05 633.06 282.89 638.69 277.26 648.53" fill="#535860"/><polygon points="214.39 753.83 208.53 745.63 210.14 744.48 214.85 751.06 221.42 746.35 222.58 747.96 214.39 753.83" fill="#535860"/><polygon points="314.74 455.59 303.98 453.56 306.01 442.8 308.13 443.2 306.5 451.84 315.14 453.47 314.74 455.59" fill="#535860"/><polygon points="225.28 399.35 214.77 390.54 216.5 388.47 224.94 395.54 232.02 387.1 234.09 388.84 225.28 399.35" fill="#535860"/><polygon points="234.06 510.93 232.72 503.22 225.01 504.56 224.68 502.67 234.28 501 235.95 510.6 234.06 510.93" fill="#535860"/><polygon points="369.49 403.91 361.08 397.24 362.39 395.58 369.14 400.94 374.5 394.18 376.15 395.5 369.49 403.91" fill="#535860"/><polygon points="278.35 748.44 274.25 740.75 266.56 744.85 265.56 742.97 275.13 737.86 280.23 747.43 278.35 748.44" fill="#535860"/><polygon points="325.98 664.08 315.45 653.63 317.5 651.56 325.96 659.94 334.34 651.49 336.42 653.54 325.98 664.08" fill="#535860"/></g><g opacity="0.07"><path d="M649.41,100.78,649.17,99a5.2,5.2,0,1,0-1.35-10.31l-.23-1.82a7,7,0,1,1,1.82,14Z" fill="#535860"/><path d="M475.66,294.38a10,10,0,0,1-8.78-5.15l2.29-1.27a7.41,7.41,0,0,0,10.08,2.86,7.42,7.42,0,0,0,2.87-10.08l2.28-1.28a10,10,0,0,1-8.74,14.92Z" fill="#535860"/><path d="M708.31,233.29a10.22,10.22,0,0,1,13.74-15.14l-1.79,2a7.55,7.55,0,1,0-10.16,11.18Z" fill="#535860"/><path d="M489.36,16.75a5.41,5.41,0,0,1-.31-10.81l.08,1.41a4,4,0,0,0-3.76,4.23,4,4,0,0,0,4.24,3.75l.08,1.41Z" fill="#535860"/><path d="M753.91,199l-1.12-1.53a5.36,5.36,0,0,0,1.17-7.5,5.39,5.39,0,0,0-7.5-1.17l-1.11-1.53A7.26,7.26,0,0,1,753.91,199Z" fill="#535860"/><path d="M598.43,236.55l-1.55-2.4a8.08,8.08,0,1,0-8.74-13.6l-1.55-2.4a10.94,10.94,0,1,1,11.84,18.4Z" fill="#535860"/><path d="M394.92,37.52a5.59,5.59,0,0,1-4.73-2.6l1.24-.78A4.09,4.09,0,0,0,394,36a4.12,4.12,0,0,0,4.4-6.22l1.23-.77a5.57,5.57,0,0,1-4.71,8.54Z" fill="#535860"/><path d="M739.92,68.86a7.25,7.25,0,0,1,1.13-10.18,7.26,7.26,0,0,1,10.18,1.14L749.75,61a5.35,5.35,0,0,0-7.52-.83,5.29,5.29,0,0,0-2,3.58,5.38,5.38,0,0,0,1.14,3.94Z" fill="#535860"/><path d="M542.34,232.39a11.42,11.42,0,0,1,6.19-20.18,11.32,11.32,0,0,1,8.36,2.56l-1.9,2.29a8.45,8.45,0,1,0-10.75,13Z" fill="#535860"/><path d="M700.13,14.2h0a4.31,4.31,0,0,1,2,8.15,4.36,4.36,0,0,1-1.94.46,4.3,4.3,0,0,1-1.95-8.14,4.24,4.24,0,0,1,1.94-.47m0-1.92a6.23,6.23,0,1,0,0,12.45,6.23,6.23,0,1,0,0-12.45Z" fill="#535860"/><path d="M454.58,135.09h0l.37,0a3.46,3.46,0,0,1-.36,6.9,2.17,2.17,0,0,1-.36,0,3.46,3.46,0,0,1,.35-6.9m0-1.54a5,5,0,0,0-.51,10,4.53,4.53,0,0,0,.52,0,5,5,0,0,0,.52-10,4.71,4.71,0,0,0-.53,0Z" fill="#535860"/><path d="M728.16,108.87a3.62,3.62,0,0,1,1,7.1,3.85,3.85,0,0,1-1,.14,3.62,3.62,0,0,1-1-7.09,3.55,3.55,0,0,1,1-.15m0-1.61a5.29,5.29,0,0,0-1.46.2,5.27,5.27,0,1,0,1.46-.2Z" fill="#535860"/><path d="M546.42,10.43h0a5.29,5.29,0,0,1,2.24.49,5.42,5.42,0,0,1,2.69,7.17,5.45,5.45,0,0,1-4.94,3.18,5.29,5.29,0,0,1-2.24-.49,5.42,5.42,0,0,1,2.25-10.35m0-2.42a7.85,7.85,0,1,0,3.24.71A7.84,7.84,0,0,0,546.42,8Z" fill="#535860"/><path d="M650.46,174.42h0a4,4,0,0,1,0,8,5.36,5.36,0,0,1-.69-.06,4,4,0,0,1,.68-7.91m0-1.77a5.76,5.76,0,0,0-1,11.43,6.61,6.61,0,0,0,1,.08,5.76,5.76,0,0,0,1-11.43,5.47,5.47,0,0,0-1-.08Z" fill="#535860"/><path d="M451.16,182.92h0a4.69,4.69,0,1,1-2.9,8.38,4.69,4.69,0,0,1,2.9-8.38m0-2.1a6.79,6.79,0,1,0,4.18,1.45,6.72,6.72,0,0,0-4.18-1.45Z" fill="#535860"/><path d="M407.12,342h0a3.26,3.26,0,0,1,3.24,3.71,3.27,3.27,0,0,1-5.84,1.54,3.25,3.25,0,0,1-.64-2.42,3.25,3.25,0,0,1,3.24-2.83m0-1.46a4.73,4.73,0,0,0,0,9.46,4.73,4.73,0,1,0,0-9.46Z" fill="#535860"/><path d="M565.4,82.44h0A5.93,5.93,0,1,1,560,85.86a5.93,5.93,0,0,1,5.37-3.42m0-2.64a8.35,8.35,0,0,0-2.93.52,8.56,8.56,0,1,0,2.93-.52Z" fill="#535860"/><path d="M567.26,330.31h0a3.38,3.38,0,1,1-1.5,6.41,3.38,3.38,0,0,1,1.5-6.41m0-1.51a4.9,4.9,0,1,0,2.15.51,4.75,4.75,0,0,0-2.15-.51Z" fill="#535860"/><path d="M521.56,57.9,527,64l-8.13.75-5.47-6.06,8.12-.74m.82-2.1L509.25,57l8.84,9.78,13.14-1.2-8.85-9.79Z" fill="#535860"/><path d="M400.2,252.41l5.61,5.93-1.38,8.05-5.61-5.94,1.38-8m-1.3-4.31-2.23,13,9.06,9.59,2.23-13-9.06-9.59Z" fill="#535860"/><path d="M699.85,336l10.87,5.38,2.22,11.93L702.07,348,699.85,336m-4-5.33L699.41,350l17.56,8.7-3.58-19.27-17.57-8.7Z" fill="#535860"/><path d="M455.46,53.75l5.94,2.09,1.89,6-5.94-2.09-1.89-6m-2.41-2.5L456.1,61l9.6,3.38-3.06-9.71-9.59-3.38Z" fill="#535860"/><path d="M570,258.36l.85,7.18-5.23,5-.85-7.18,5.23-5m1.35-3.75-8.45,8.06,1.37,11.6,8.46-8.06-1.38-11.6Z" fill="#535860"/><path d="M495.38,183.53l5.73,3.17.9,6.49L496.28,190l-.9-6.49m-2-3L494.79,191l9.27,5.13-1.46-10.49-9.26-5.13Z" fill="#535860"/><path d="M519.2,349.17l-2.68,5.49-6,1.15,2.68-5.49,6-1.15m2.67-2L512.18,349l-4.33,8.87,9.69-1.86,4.33-8.87Z" fill="#535860"/><path d="M583.51,145.59l-6.77,10.16-12.19.68,6.77-10.16,12.19-.68m5.83-3.34-19.69,1.11-10.93,16.41,19.69-1.1,10.93-16.42Z" fill="#535860"/><path d="M428,7.55l8,8.31-1.85,11.38-8-8.31L428,7.55M426.1,1.48l-3,18.39L436,33.3l3-18.39L426.1,1.48Z" fill="#535860"/><path d="M404.74,87a1.37,1.37,0,0,1-1.25-2,6,6,0,0,1,8.61-2.68,3.27,3.27,0,0,0,4.71-1.47,6,6,0,0,1,8.61-2.68,1.38,1.38,0,0,1-1.4,2.38,3.27,3.27,0,0,0-4.71,1.47,6,6,0,0,1-8.61,2.68A3.25,3.25,0,0,0,406,86.24,1.38,1.38,0,0,1,404.74,87Z" fill="#535860"/><path d="M675.65,146.2h0a.9.9,0,0,1-.87-.93,2.14,2.14,0,0,0-.63-1.65,2.17,2.17,0,0,0-1.67-.61,4,4,0,0,1-3-1.11,4,4,0,0,1-1.17-3,2.19,2.19,0,0,0-.63-1.65,2.23,2.23,0,0,0-1.67-.6.92.92,0,0,1-1-.85.9.9,0,0,1,.85-.95,4,4,0,0,1,3,1.12,3.94,3.94,0,0,1,1.17,3,2.14,2.14,0,0,0,.63,1.65,2.18,2.18,0,0,0,1.67.6,3.93,3.93,0,0,1,4.2,4.12A.9.9,0,0,1,675.65,146.2Z" fill="#535860"/><path d="M656.22,318.66a.82.82,0,1,1,0-1.63,1.93,1.93,0,0,0,1.93-2.18,3.56,3.56,0,0,1,3.54-4,1.93,1.93,0,0,0,1.93-2.18.82.82,0,0,1,.73-.9.81.81,0,0,1,.9.72,3.62,3.62,0,0,1-.87,2.8,3.56,3.56,0,0,1-2.67,1.19,1.95,1.95,0,0,0-1.94,2.19,3.55,3.55,0,0,1-3.53,4Z" fill="#535860"/><path d="M445.81,249a1.32,1.32,0,0,1-.81-.29,5.68,5.68,0,0,1-2.14-4.08,5.63,5.63,0,0,1,1.65-4.3,3.11,3.11,0,0,0,.91-2.35,3.08,3.08,0,0,0-1.19-2.24,5.61,5.61,0,0,1-.49-8.38,1.28,1.28,0,1,1,1.83,1.8,3,3,0,0,0,.28,4.58,5.62,5.62,0,0,1,.49,8.39,3,3,0,0,0,.28,4.58,1.3,1.3,0,0,1,.19,1.81A1.31,1.31,0,0,1,445.81,249Z" fill="#535860"/><path d="M459.73,339.92a6.58,6.58,0,0,1-6.6-6.31,3.57,3.57,0,0,0-4.2-3.4,6.6,6.6,0,0,1-7.67-6.23,1.51,1.51,0,0,1,3-.17,3.58,3.58,0,0,0,4.2,3.41,6.58,6.58,0,0,1,7.67,6.22,3.57,3.57,0,0,0,4.2,3.4,1.51,1.51,0,0,1,.46,3A6.74,6.74,0,0,1,459.73,339.92Z" fill="#535860"/><path d="M396.9,133.77h-.16a1,1,0,1,1,.07-2,2.43,2.43,0,0,0,1.87-.73,2.46,2.46,0,0,0,.67-1.9,4.48,4.48,0,0,1,1.25-3.45,4.53,4.53,0,0,1,3.4-1.35,2.49,2.49,0,0,0,1.88-.73,2.44,2.44,0,0,0,.67-1.9,1,1,0,0,1,1-1.08,1,1,0,0,1,1.08,1,4.44,4.44,0,0,1-4.65,4.8,2.44,2.44,0,0,0-1.87.73,2.5,2.5,0,0,0-.68,1.9,4.46,4.46,0,0,1-4.49,4.81Z" fill="#535860"/><path d="M521.14,143.36a4.74,4.74,0,0,1-4.64-3.73,2.58,2.58,0,0,0-3.42-1.9,4.79,4.79,0,0,1-6.26-3.47,1.11,1.11,0,0,1,.82-1.32,1.09,1.09,0,0,1,1.31.82,2.65,2.65,0,0,0,1.28,1.73,2.59,2.59,0,0,0,2.15.16,4.77,4.77,0,0,1,6.25,3.47,2.6,2.6,0,0,0,1.28,1.73,2.63,2.63,0,0,0,2.15.17,1.09,1.09,0,0,1,1.38.69,1.08,1.08,0,0,1-.68,1.38A4.83,4.83,0,0,1,521.14,143.36Z" fill="#535860"/><path d="M406.61,192a1.33,1.33,0,0,1-.95-.39,5.85,5.85,0,0,1-1.69-4.42,5.77,5.77,0,0,1,2.19-4.19,3.17,3.17,0,0,0,1.21-2.29,3.21,3.21,0,0,0-.94-2.42,5.75,5.75,0,0,1,.49-8.61,1.32,1.32,0,0,1,1.66,2.05,3.17,3.17,0,0,0-1.21,2.29,3.13,3.13,0,0,0,.94,2.42,5.77,5.77,0,0,1-.49,8.61,3.1,3.1,0,0,0-.27,4.71,1.31,1.31,0,0,1,0,1.86A1.29,1.29,0,0,1,406.61,192Z" fill="#535860"/><path d="M599,60.09a5.83,5.83,0,0,1-2-.36,1.27,1.27,0,0,1,.87-2.38,3,3,0,0,0,4-2.1,5.54,5.54,0,0,1,7.35-3.82,3,3,0,0,0,4-2.09,1.27,1.27,0,0,1,2.45.65,5.51,5.51,0,0,1-7.34,3.82,3,3,0,0,0-4,2.09,5.56,5.56,0,0,1-2.81,3.57A5.41,5.41,0,0,1,599,60.09Z" fill="#535860"/><path d="M668.58,209.05a.69.69,0,0,1-.5-.2l-4.89-4.48a.75.75,0,0,1-.05-1.06.76.76,0,0,1,1.06,0l4.89,4.48a.75.75,0,0,1-.51,1.3Z" fill="#535860"/><path d="M508.66,244.8a.78.78,0,0,1-.59-.27l-4.63-5.24a.78.78,0,0,1,.07-1.11.79.79,0,0,1,1.12.07l4.63,5.23a.8.8,0,0,1-.6,1.32Z" fill="#535860"/><path d="M476.13,99.09a.94.94,0,0,1-.21-1.86L484,95.35a.94.94,0,1,1,.42,1.84l-8.11,1.87A.76.76,0,0,1,476.13,99.09Z" fill="#535860"/><path d="M644.54,27.59a.9.9,0,0,1-.87-.69.89.89,0,0,1,.66-1.07L652,24a.89.89,0,0,1,.42,1.74l-7.68,1.84A.76.76,0,0,1,644.54,27.59Z" fill="#535860"/><path d="M746.62,327.1a.83.83,0,0,1-.8-.63l-1.68-7.05a.82.82,0,0,1,1.6-.38l1.68,7a.82.82,0,0,1-.61,1A.63.63,0,0,1,746.62,327.1Z" fill="#535860"/><path d="M614.27,335.07a.8.8,0,0,1-.72-.47l-2.85-6.41a.79.79,0,0,1,.4-1.05.81.81,0,0,1,1,.4L615,334a.81.81,0,0,1-.41,1.05A.71.71,0,0,1,614.27,335.07Z" fill="#535860"/><path d="M611.15,285a1.32,1.32,0,0,1-1.32-1.24,1.34,1.34,0,0,1,1.24-1.41l11.71-.68a1.33,1.33,0,0,1,.16,2.65l-11.71.68Z" fill="#535860"/><path d="M534.49,301a.71.71,0,0,1-.68-.5l-1.76-6a.71.71,0,0,1,.48-.87.7.7,0,0,1,.87.48l1.76,6a.7.7,0,0,1-.48.87A.63.63,0,0,1,534.49,301Z" fill="#535860"/><path d="M753.55,258.74h-.14l-10.21-1.22a1.16,1.16,0,0,1,.28-2.31l10.2,1.22a1.16,1.16,0,0,1-.13,2.32Z" fill="#535860"/><polygon points="703.11 179.18 700.97 177.06 711.77 166.2 722.62 177 720.5 179.13 711.78 170.47 703.11 179.18" fill="#535860"/><polygon points="656.38 264.01 654.45 262.9 658.97 255 651.07 250.48 652.17 248.54 662.01 254.17 656.38 264.01" fill="#535860"/><polygon points="593.51 369.31 587.65 361.11 589.26 359.96 593.97 366.54 600.54 361.83 601.7 363.44 593.51 369.31" fill="#535860"/><polygon points="693.86 71.08 683.1 69.04 685.13 58.28 687.25 58.68 685.62 67.32 694.26 68.96 693.86 71.08" fill="#535860"/><polygon points="604.4 14.83 593.89 6.02 595.62 3.95 604.06 11.02 611.14 2.58 613.21 4.32 604.4 14.83" fill="#535860"/><polygon points="613.18 126.41 611.84 118.7 604.13 120.04 603.8 118.15 613.4 116.48 615.07 126.08 613.18 126.41" fill="#535860"/><polygon points="748.61 19.39 740.2 12.72 741.51 11.07 748.26 16.42 753.62 9.67 755.27 10.98 748.61 19.39" fill="#535860"/><polygon points="657.47 363.92 653.37 356.23 645.68 360.33 644.67 358.45 654.25 353.34 659.35 362.92 657.47 363.92" fill="#535860"/><polygon points="705.1 279.56 694.57 269.12 696.62 267.04 705.08 275.43 713.46 266.97 715.54 269.02 705.1 279.56" fill="#535860"/></g><g opacity="0.07"><path d="M658.06,486.43l-.23-1.82a5.2,5.2,0,1,0-1.35-10.31l-.24-1.82a7,7,0,0,1,7.89,6.06,7,7,0,0,1-6.07,7.89Z" fill="#535860"/><path d="M484.31,680a10,10,0,0,1-8.78-5.15l2.29-1.27a7.41,7.41,0,0,0,10.09,2.86,7.41,7.41,0,0,0,2.86-10.08l2.29-1.28A10,10,0,0,1,484.31,680Z" fill="#535860"/><path d="M717,618.94a10.22,10.22,0,1,1,13.74-15.14l-1.8,2A7.55,7.55,0,1,0,718.76,617Z" fill="#535860"/><path d="M498,402.4a5.41,5.41,0,0,1-.31-10.81l.08,1.41a4,4,0,1,0,.48,8l.08,1.41Z" fill="#535860"/><path d="M762.56,584.61l-1.12-1.53a5.36,5.36,0,0,0-6.32-8.67L754,572.88a7.27,7.27,0,0,1,10.14,1.59,7.26,7.26,0,0,1-1.58,10.14Z" fill="#535860"/><path d="M607.08,622.2l-1.55-2.4a8.08,8.08,0,1,0-8.74-13.6l-1.54-2.4a10.94,10.94,0,0,1,11.83,18.4Z" fill="#535860"/><path d="M403.57,423.17a5.56,5.56,0,0,1-4.72-2.6l1.23-.78a4.12,4.12,0,1,0,7-4.39l1.23-.77a5.57,5.57,0,0,1-4.71,8.54Z" fill="#535860"/><path d="M748.57,454.51a7.24,7.24,0,1,1,11.31-9l-1.48,1.17a5.36,5.36,0,0,0-7.52-.83,5.37,5.37,0,0,0-.84,7.52Z" fill="#535860"/><path d="M551,618A11.43,11.43,0,0,1,549.46,602a11.42,11.42,0,0,1,16.08-1.54l-1.9,2.29a8.45,8.45,0,0,0-10.75,13Z" fill="#535860"/><path d="M708.78,399.85h0a4.31,4.31,0,0,1,2,8.15,4.31,4.31,0,0,1-5.78-1.9,4.29,4.29,0,0,1,1.89-5.78,4.24,4.24,0,0,1,1.94-.47m0-1.92a6.23,6.23,0,1,0,0,12.45,6.14,6.14,0,0,0,2.81-.67,6.23,6.23,0,0,0-2.82-11.78Z" fill="#535860"/><path d="M463.24,520.74h0l.36,0a3.46,3.46,0,0,1-.35,6.9,2.3,2.3,0,0,1-.37,0,3.46,3.46,0,0,1,.36-6.9m0-1.54a5,5,0,0,0-.52,10,4.71,4.71,0,0,0,.53,0,5,5,0,0,0,.52-10l-.53,0Z" fill="#535860"/><path d="M736.81,494.52a3.62,3.62,0,0,1,1,7.1,3.85,3.85,0,0,1-1,.14,3.62,3.62,0,0,1-1-7.09,3.48,3.48,0,0,1,1-.15m0-1.61a5.23,5.23,0,1,0,5,3.77,5.19,5.19,0,0,0-5-3.77Z" fill="#535860"/><path d="M555.07,396.08h0a5.26,5.26,0,0,1,2.24.49,5.42,5.42,0,0,1,2.69,7.17,5.43,5.43,0,0,1-4.94,3.18,5.32,5.32,0,0,1-2.24-.49,5.42,5.42,0,0,1,2.25-10.35m0-2.42a7.85,7.85,0,1,0,3.24.71,7.77,7.77,0,0,0-3.24-.71Z" fill="#535860"/><path d="M659.11,560.07h0a3.82,3.82,0,0,1,.68.06,4,4,0,0,1-.67,7.91,3.82,3.82,0,0,1-.68-.06,4,4,0,0,1,.67-7.91m0-1.77a5.76,5.76,0,0,0-1,11.43,6.61,6.61,0,0,0,1,.08,5.76,5.76,0,0,0,1-11.43,6.83,6.83,0,0,0-1-.08Z" fill="#535860"/><path d="M459.81,568.57h0a4.69,4.69,0,1,1-2.9,8.38,4.69,4.69,0,0,1,2.9-8.38m0-2.1a6.8,6.8,0,1,0,4.18,1.45,6.8,6.8,0,0,0-4.18-1.45Z" fill="#535860"/><path d="M415.77,727.66h0a3.26,3.26,0,0,1,2,5.87,3.19,3.19,0,0,1-2,.67,3.27,3.27,0,1,1,0-6.54m0-1.46a4.73,4.73,0,1,0,3.77,1.86,4.71,4.71,0,0,0-3.77-1.86Z" fill="#535860"/><path d="M574.05,468.09h0a5.93,5.93,0,0,1,2,11.5,5.87,5.87,0,0,1-2,.36,5.94,5.94,0,0,1-5.56-3.9,5.92,5.92,0,0,1,5.56-8m0-2.64a8.39,8.39,0,0,0-2.93.52,8.56,8.56,0,1,0,2.93-.52Z" fill="#535860"/><path d="M575.91,716h0a3.38,3.38,0,1,1,0,6.76,3.32,3.32,0,0,1-1.48-.35,3.38,3.38,0,0,1,1.49-6.41m0-1.51a4.9,4.9,0,1,0,2.16.51,4.79,4.79,0,0,0-2.16-.51Z" fill="#535860"/><path d="M530.22,443.55l5.47,6.05-8.13.75-5.47-6.05,8.13-.75m.81-2.1-13.13,1.21,8.85,9.78,13.13-1.2L531,441.45Z" fill="#535860"/><path d="M408.86,638.06l5.6,5.93-1.38,8-5.61-5.94,1.39-8m-1.31-4.31-2.23,13,9.06,9.59,2.24-13-9.07-9.59Z" fill="#535860"/><path d="M708.51,721.67l10.87,5.38L721.6,739l-10.88-5.38-2.21-11.93m-4-5.33,3.59,19.27,17.57,8.7L722,725l-17.57-8.7Z" fill="#535860"/><path d="M464.12,439.4l5.93,2.09,1.89,6L466,445.4l-1.88-6m-2.42-2.5,3.06,9.71,9.59,3.38-3.05-9.71-9.6-3.38Z" fill="#535860"/><path d="M578.67,644l.86,7.18-5.24,5-.85-7.18,5.23-5m1.35-3.75-8.45,8.06,1.38,11.6,8.45-8.06L580,640.26Z" fill="#535860"/><path d="M504,569.18l5.74,3.17.9,6.49-5.74-3.17-.9-6.49m-2-3,1.46,10.49,9.26,5.13-1.46-10.49L502,566.2Z" fill="#535860"/><path d="M527.85,734.82l-2.68,5.49-6,1.15,2.68-5.49,6-1.15m2.68-2-9.7,1.86-4.33,8.87,9.69-1.86,4.34-8.87Z" fill="#535860"/><path d="M592.16,531.24,585.4,541.4l-12.19.68L580,531.92l12.19-.68M598,527.9,578.3,529l-10.93,16.41,19.69-1.1L598,527.9Z" fill="#535860"/><path d="M436.64,393.2l8,8.31-1.86,11.38-8-8.31,1.85-11.38m-1.89-6.06-3,18.38L444.67,419l3-18.39-12.92-13.42Z" fill="#535860"/><path d="M413.39,472.68a1.33,1.33,0,0,1-.58-.13,1.38,1.38,0,0,1-.67-1.83,6,6,0,0,1,8.61-2.68,3.3,3.3,0,0,0,2.69.34,3.25,3.25,0,0,0,2-1.81,6.1,6.1,0,0,1,3.71-3.28,6,6,0,0,1,4.91.61,1.38,1.38,0,0,1-1.4,2.38,3.27,3.27,0,0,0-4.72,1.46,6,6,0,0,1-8.61,2.68,3.25,3.25,0,0,0-4.71,1.47A1.37,1.37,0,0,1,413.39,472.68Z" fill="#535860"/><path d="M684.3,531.85h0a.9.9,0,0,1-.87-.93,2.14,2.14,0,0,0-.63-1.65,2.17,2.17,0,0,0-1.67-.61,3.92,3.92,0,0,1-4.2-4.12,2.19,2.19,0,0,0-.63-1.65,2.21,2.21,0,0,0-1.67-.6.92.92,0,0,1-1-.85.9.9,0,0,1,.85-1,4,4,0,0,1,3,1.12,3.94,3.94,0,0,1,1.17,3,2.15,2.15,0,0,0,2.3,2.26,4,4,0,0,1,3,1.11,3.92,3.92,0,0,1,1.17,3A.9.9,0,0,1,684.3,531.85Z" fill="#535860"/><path d="M664.87,704.31a.81.81,0,0,1-.82-.8.83.83,0,0,1,.81-.83,1.91,1.91,0,0,0,1.46-.64,1.94,1.94,0,0,0,.47-1.54,3.56,3.56,0,0,1,3.54-4,1.92,1.92,0,0,0,1.47-.65,2,2,0,0,0,.47-1.53.81.81,0,1,1,1.62-.18,3.56,3.56,0,0,1-3.54,4,1.92,1.92,0,0,0-1.93,2.18,3.62,3.62,0,0,1-.87,2.8,3.56,3.56,0,0,1-2.67,1.19Z" fill="#535860"/><path d="M454.46,634.6a1.32,1.32,0,0,1-.81-.29,5.61,5.61,0,0,1-.49-8.38,3,3,0,0,0-.27-4.59,5.6,5.6,0,0,1-.5-8.38,1.29,1.29,0,1,1,1.84,1.8,3,3,0,0,0,.27,4.59,5.62,5.62,0,0,1,.5,8.38,3,3,0,0,0,.27,4.58,1.29,1.29,0,0,1-.81,2.29Z" fill="#535860"/><path d="M468.38,725.57a6.58,6.58,0,0,1-6.59-6.31,3.67,3.67,0,0,0-1.32-2.66,3.63,3.63,0,0,0-2.88-.74,6.6,6.6,0,0,1-7.68-6.23,1.52,1.52,0,0,1,1.43-1.59,1.5,1.5,0,0,1,1.59,1.43,3.58,3.58,0,0,0,4.2,3.4,6.6,6.6,0,0,1,7.68,6.22,3.61,3.61,0,0,0,1.31,2.66,3.65,3.65,0,0,0,2.88.75,1.51,1.51,0,1,1,.46,3A7.85,7.85,0,0,1,468.38,725.57Z" fill="#535860"/><path d="M405.55,519.42h-.16a1,1,0,1,1,.07-2,2.41,2.41,0,0,0,2.54-2.63,4.47,4.47,0,0,1,4.66-4.8,2.41,2.41,0,0,0,2.54-2.63,1,1,0,0,1,2.05-.13,4.5,4.5,0,0,1-1.25,3.46,4.57,4.57,0,0,1-3.41,1.35,2.39,2.39,0,0,0-1.87.73,2.43,2.43,0,0,0-.67,1.89,4.46,4.46,0,0,1-4.5,4.81Z" fill="#535860"/><path d="M529.8,529a4.74,4.74,0,0,1-4.64-3.73,2.6,2.6,0,0,0-3.43-1.9,4.77,4.77,0,0,1-6.25-3.47,1.09,1.09,0,0,1,.81-1.32,1.11,1.11,0,0,1,1.32.82,2.64,2.64,0,0,0,1.27,1.73,2.59,2.59,0,0,0,2.15.16,4.79,4.79,0,0,1,6.26,3.47,2.59,2.59,0,0,0,1.27,1.73,2.63,2.63,0,0,0,2.15.17,1.1,1.1,0,0,1,.7,2.08A5.07,5.07,0,0,1,529.8,529Z" fill="#535860"/><path d="M415.26,577.64a1.31,1.31,0,0,1-.94-.39,5.75,5.75,0,0,1,.49-8.61,3.12,3.12,0,0,0,.27-4.71,5.75,5.75,0,0,1,.49-8.61,1.32,1.32,0,1,1,1.66,2,3.12,3.12,0,0,0-.27,4.71,5.77,5.77,0,0,1-.49,8.61,3.12,3.12,0,0,0-.27,4.71,1.32,1.32,0,0,1,0,1.87A1.3,1.3,0,0,1,415.26,577.64Z" fill="#535860"/><path d="M607.62,445.74a5.87,5.87,0,0,1-2-.36,1.27,1.27,0,0,1,.87-2.38,3,3,0,0,0,4-2.09,5.53,5.53,0,0,1,7.35-3.83,3,3,0,0,0,4-2.09,1.27,1.27,0,1,1,2.45.65,5.53,5.53,0,0,1-7.35,3.82,3,3,0,0,0-4,2.09,5.5,5.5,0,0,1-2.81,3.57A5.35,5.35,0,0,1,607.62,445.74Z" fill="#535860"/><path d="M677.24,594.7a.7.7,0,0,1-.51-.2L671.84,590a.75.75,0,1,1,1-1.1l4.88,4.48a.75.75,0,0,1-.5,1.3Z" fill="#535860"/><path d="M517.32,630.45a.8.8,0,0,1-.6-.27l-4.63-5.24a.79.79,0,0,1,1.19-1l4.63,5.23a.79.79,0,0,1-.07,1.12A.81.81,0,0,1,517.32,630.45Z" fill="#535860"/><path d="M484.78,484.74a.94.94,0,0,1-.21-1.86l8.11-1.88a.94.94,0,0,1,.43,1.84L485,484.71Z" fill="#535860"/><path d="M653.19,413.24a.89.89,0,0,1-.2-1.76l7.68-1.85a.88.88,0,0,1,1.07.66.89.89,0,0,1-.66,1.08l-7.68,1.84A.76.76,0,0,1,653.19,413.24Z" fill="#535860"/><path d="M755.27,712.75a.82.82,0,0,1-.79-.63l-1.68-7a.82.82,0,0,1,.6-1,.83.83,0,0,1,1,.61l1.68,7a.81.81,0,0,1-.61,1A.58.58,0,0,1,755.27,712.75Z" fill="#535860"/><path d="M622.93,720.72a.8.8,0,0,1-.73-.47l-2.85-6.41a.81.81,0,0,1,.41-1.05.79.79,0,0,1,1,.41l2.85,6.4a.79.79,0,0,1-.4,1A.77.77,0,0,1,622.93,720.72Z" fill="#535860"/><path d="M619.8,670.66a1.32,1.32,0,0,1-.07-2.64l11.7-.69a1.33,1.33,0,0,1,.16,2.65l-11.71.68Z" fill="#535860"/><path d="M543.14,686.63a.71.71,0,0,1-.68-.5l-1.76-6a.71.71,0,0,1,.48-.87.7.7,0,0,1,.87.48l1.76,6a.7.7,0,0,1-.47.87Z" fill="#535860"/><path d="M762.2,644.39h-.14l-10.2-1.22a1.16,1.16,0,1,1,.27-2.31l10.2,1.22a1.16,1.16,0,0,1-.13,2.32Z" fill="#535860"/><polygon points="711.76 564.83 709.63 562.71 720.42 551.85 731.27 562.65 729.15 564.78 720.43 556.12 711.76 564.83" fill="#535860"/><polygon points="665.04 649.66 663.1 648.55 667.62 640.65 659.72 636.13 660.83 634.2 670.66 639.82 665.04 649.66" fill="#535860"/><polygon points="602.16 754.96 596.3 746.76 597.91 745.61 602.62 752.19 609.2 747.48 610.35 749.09 602.16 754.96" fill="#535860"/><polygon points="702.51 456.73 691.75 454.69 693.79 443.94 695.91 444.33 694.27 452.97 702.91 454.61 702.51 456.73" fill="#535860"/><polygon points="613.05 400.48 602.54 391.67 604.27 389.6 612.71 396.67 619.79 388.23 621.86 389.97 613.05 400.48" fill="#535860"/><polygon points="621.83 512.06 620.49 504.35 612.78 505.69 612.45 503.8 622.05 502.13 623.72 511.73 621.83 512.06" fill="#535860"/><polygon points="757.26 405.04 748.85 398.37 750.16 396.72 756.92 402.07 762.27 395.32 763.93 396.63 757.26 405.04" fill="#535860"/><polygon points="666.12 749.57 662.02 741.88 654.33 745.98 653.33 744.1 662.9 738.99 668 748.57 666.12 749.57" fill="#535860"/><polygon points="713.75 665.21 703.22 654.77 705.27 652.69 713.73 661.08 722.11 652.62 724.19 654.67 713.75 665.21" fill="#535860"/></g><g opacity="0.07"><path d="M863.43,290.73a10.09,10.09,0,0,1-8.78-5.15l2.29-1.28A7.41,7.41,0,0,0,867,287.17a7.43,7.43,0,0,0,2.86-10.09l2.29-1.27a10,10,0,0,1-3.88,13.64A9.9,9.9,0,0,1,863.43,290.73Z" fill="#535860"/><path d="M877.13,13.1a5.41,5.41,0,0,1-.31-10.82l.08,1.41A4,4,0,0,0,874.15,5a4,4,0,0,0,.33,5.65,4,4,0,0,0,2.9,1l.08,1.41Z" fill="#535860"/><path d="M986.2,232.89l-1.55-2.4a8.08,8.08,0,1,0-8.74-13.59l-1.54-2.41a10.94,10.94,0,0,1,11.83,18.4Z" fill="#535860"/><path d="M782.69,33.87A5.55,5.55,0,0,1,778,31.26l1.23-.77a4.12,4.12,0,0,0,5.68,1.29,4.13,4.13,0,0,0,1.29-5.68l1.23-.77a5.58,5.58,0,0,1-4.71,8.54Z" fill="#535860"/><path d="M930.12,228.74a11.43,11.43,0,1,1,14.54-17.63l-1.9,2.3a8.45,8.45,0,0,0-11.89,1.14A8.46,8.46,0,0,0,932,226.44Z" fill="#535860"/><path d="M842.36,131.44h0l.36,0a3.48,3.48,0,0,1,2.33,1.26,3.46,3.46,0,0,1-2.68,5.64l-.37,0a3.46,3.46,0,0,1,.36-6.9m0-1.54a5,5,0,0,0-.52,10,4.71,4.71,0,0,0,.53,0,5,5,0,0,0,.52-10l-.53,0Z" fill="#535860"/><path d="M934.19,6.77h0a5.43,5.43,0,0,1,0,10.85,5.43,5.43,0,0,1,0-10.85m0-2.41a7.83,7.83,0,1,0,3.24.7,7.76,7.76,0,0,0-3.24-.7Z" fill="#535860"/><path d="M838.93,179.26h0a4.69,4.69,0,0,1,2.89,1,4.71,4.71,0,0,1,.8,6.59,4.69,4.69,0,1,1-3.69-7.59m0-2.09a6.78,6.78,0,1,0,4.18,1.44,6.77,6.77,0,0,0-4.18-1.44Z" fill="#535860"/><path d="M794.89,338.35h0a3.27,3.27,0,0,1,2.61,1.29,3.3,3.3,0,0,1,.64,2.43,3.26,3.26,0,0,1-1.27,2.16,3.19,3.19,0,0,1-2,.67,3.29,3.29,0,0,1-3.25-3.72,3.29,3.29,0,0,1,1.26-2.16,3.24,3.24,0,0,1,2-.67m0-1.46a4.73,4.73,0,1,0,3.77,1.87,4.72,4.72,0,0,0-3.77-1.87Z" fill="#535860"/><path d="M953.17,78.79h0a5.92,5.92,0,0,1,2,11.49,5.92,5.92,0,1,1-2-11.49m0-2.65a8.58,8.58,0,1,0,8.05,5.64,8.63,8.63,0,0,0-8.05-5.64Z" fill="#535860"/><path d="M955,326.65h0a3.38,3.38,0,1,1,0,6.76,3.19,3.19,0,0,1-1.48-.35,3.38,3.38,0,0,1,1.49-6.41m0-1.5a4.88,4.88,0,1,0,2.16.5,4.88,4.88,0,0,0-2.16-.5Z" fill="#535860"/><path d="M909.34,54.24l5.47,6.06-8.13.75L901.21,55l8.13-.75m.81-2.09L897,53.36l8.85,9.78L919,61.93l-8.85-9.78Z" fill="#535860"/><path d="M788,248.75l5.6,5.94-1.38,8.05-5.61-5.94,1.39-8.05m-1.3-4.3-2.24,13L793.5,267l2.24-13-9.06-9.59Z" fill="#535860"/><path d="M843.24,50.09l5.93,2.1,1.89,6-5.94-2.09-1.88-6m-2.41-2.49,3,9.7,9.59,3.38L850.42,51l-9.59-3.38Z" fill="#535860"/><path d="M957.79,254.7l.86,7.18-5.24,5-.85-7.18,5.23-5m1.35-3.74L950.69,259l1.38,11.6,8.45-8.06L959.14,251Z" fill="#535860"/><path d="M883.15,179.87l5.74,3.18.9,6.49-5.74-3.18-.9-6.49m-2-3,1.46,10.48,9.26,5.13L890.37,182l-9.26-5.13Z" fill="#535860"/><path d="M907,345.52,904.29,351l-6,1.15,2.68-5.49,6-1.15m2.68-2-9.7,1.85-4.33,8.87,9.69-1.85,4.34-8.87Z" fill="#535860"/><path d="M971.28,141.94l-6.76,10.16-12.19.68,6.76-10.16,12.19-.68m5.84-3.34-19.7,1.1-10.93,16.42,19.7-1.1,10.93-16.42Z" fill="#535860"/><path d="M815.76,3.9l8,8.3L821.9,23.58l-8-8.31L815.76,3.9m-1.89-6.07-3,18.39,12.91,13.43,3-18.39L813.87-2.17Z" fill="#535860"/><path d="M792.51,83.38a1.33,1.33,0,0,1-.58-.13,1.39,1.39,0,0,1-.67-1.84,6,6,0,0,1,8.61-2.67,3.38,3.38,0,0,0,2.69.34,3.31,3.31,0,0,0,2-1.81,6,6,0,0,1,8.62-2.68,1.39,1.39,0,0,1,.49,1.89,1.38,1.38,0,0,1-1.89.49,3.26,3.26,0,0,0-4.72,1.47,6,6,0,0,1-8.61,2.68,3.3,3.3,0,0,0-2.69-.35,3.33,3.33,0,0,0-2,1.81A1.38,1.38,0,0,1,792.51,83.38Z" fill="#535860"/><path d="M833.58,245.29a1.31,1.31,0,0,1-.81-.28,5.61,5.61,0,0,1-.49-8.38A3,3,0,0,0,832,232a5.6,5.6,0,0,1-.5-8.38,1.28,1.28,0,0,1,1.84,1.79,3,3,0,0,0,.27,4.59,5.62,5.62,0,0,1,.5,8.38,3,3,0,0,0,.27,4.59,1.27,1.27,0,0,1,.19,1.8A1.25,1.25,0,0,1,833.58,245.29Z" fill="#535860"/><path d="M847.5,336.26a6.53,6.53,0,0,1-4.16-1.46,6.64,6.64,0,0,1-2.43-4.84,3.58,3.58,0,0,0-4.2-3.41,6.59,6.59,0,0,1-7.68-6.22,1.51,1.51,0,0,1,3-.17,3.57,3.57,0,0,0,4.2,3.4,6.61,6.61,0,0,1,7.68,6.23,3.55,3.55,0,0,0,4.19,3.4,1.51,1.51,0,1,1,.46,3A7.85,7.85,0,0,1,847.5,336.26Z" fill="#535860"/><path d="M784.67,130.11h-.16a1,1,0,1,1,.07-2.05,2.39,2.39,0,0,0,1.87-.72,2.46,2.46,0,0,0,.67-1.9,4.47,4.47,0,0,1,4.66-4.8,2.52,2.52,0,0,0,1.87-.73,2.46,2.46,0,0,0,.67-1.9,1,1,0,1,1,2-.13,4.48,4.48,0,0,1-1.25,3.45,4.53,4.53,0,0,1-3.41,1.35,2.42,2.42,0,0,0-1.87.73,2.46,2.46,0,0,0-.67,1.9,4.46,4.46,0,0,1-4.5,4.8Z" fill="#535860"/><path d="M908.92,139.71a4.65,4.65,0,0,1-2.3-.6,4.77,4.77,0,0,1-2.34-3.14,2.65,2.65,0,0,0-1.28-1.73,2.6,2.6,0,0,0-2.15-.16,4.77,4.77,0,0,1-6.25-3.47,1.09,1.09,0,0,1,.81-1.32,1.11,1.11,0,0,1,1.32.81,2.58,2.58,0,0,0,3.42,1.9,4.79,4.79,0,0,1,6.26,3.47,2.58,2.58,0,0,0,3.42,1.9,1.09,1.09,0,1,1,.7,2.07A5,5,0,0,1,908.92,139.71Z" fill="#535860"/><path d="M794.38,188.34a1.28,1.28,0,0,1-.94-.4,5.75,5.75,0,0,1,.49-8.61,3.15,3.15,0,0,0,1.21-2.29,3.2,3.2,0,0,0-.94-2.42,5.73,5.73,0,0,1,.49-8.6,1.32,1.32,0,1,1,1.66,2,3.15,3.15,0,0,0-1.21,2.29,3.2,3.2,0,0,0,.94,2.42,5.75,5.75,0,0,1-.49,8.6,3.13,3.13,0,0,0-.27,4.72,1.32,1.32,0,0,1-.94,2.24Z" fill="#535860"/><path d="M986.74,56.44a5.65,5.65,0,0,1-2-.37,1.26,1.26,0,0,1,.87-2.37,3.08,3.08,0,0,0,2.49-.13,3,3,0,0,0,1.53-2A5.54,5.54,0,0,1,997,47.78a3,3,0,0,0,4-2.1,1.27,1.27,0,0,1,2.45.65,5.54,5.54,0,0,1-7.35,3.83,3,3,0,0,0-2.48.12,3.08,3.08,0,0,0-1.54,2,5.51,5.51,0,0,1-5.34,4.19Z" fill="#535860"/><path d="M896.44,241.14a.83.83,0,0,1-.6-.26l-4.63-5.24a.79.79,0,1,1,1.19-1l4.63,5.24a.78.78,0,0,1-.59,1.31Z" fill="#535860"/><path d="M863.9,95.43a.93.93,0,0,1-.91-.73,1,1,0,0,1,.7-1.13l8.11-1.87a1,1,0,0,1,1.13.7.94.94,0,0,1-.7,1.13l-8.11,1.88Z" fill="#535860"/><path d="M1002.05,331.41a.78.78,0,0,1-.73-.47l-2.85-6.4a.8.8,0,0,1,.41-1.05.78.78,0,0,1,1,.4l2.85,6.41a.79.79,0,0,1-.4,1.05A1,1,0,0,1,1002.05,331.41Z" fill="#535860"/><path d="M998.92,281.36a1.33,1.33,0,0,1-.07-2.65l11.7-.69a1.33,1.33,0,0,1,1.4,1.25,1.31,1.31,0,0,1-1.24,1.4l-11.71.69Z" fill="#535860"/><path d="M922.26,297.33a.7.7,0,0,1-.68-.51l-1.76-6a.71.71,0,0,1,.48-.87.69.69,0,0,1,.87.47l1.76,6a.71.71,0,0,1-.47.88Z" fill="#535860"/><polygon points="981.28 365.65 975.42 357.46 977.03 356.3 981.74 362.88 988.32 358.18 989.47 359.79 981.28 365.65" fill="#535860"/><polygon points="992.17 11.17 981.66 2.37 983.4 0.29 991.83 7.37 998.91 -1.07 1000.98 0.67 992.17 11.17" fill="#535860"/><polygon points="1000.95 122.75 999.61 115.05 991.9 116.39 991.57 114.5 1001.17 112.83 1002.84 122.42 1000.95 122.75" fill="#535860"/></g><g opacity="0.07"><path d="M872.08,676.38a10.09,10.09,0,0,1-8.77-5.15l2.28-1.28a7.41,7.41,0,1,0,12.95-7.22l2.29-1.27A10,10,0,0,1,877,675.1,9.9,9.9,0,0,1,872.08,676.38Z" fill="#535860"/><path d="M885.78,398.75a5.41,5.41,0,0,1-4-9,5.33,5.33,0,0,1,3.73-1.81l.08,1.4a4,4,0,0,0-3.75,4.24,4,4,0,0,0,4.23,3.75l.08,1.41Z" fill="#535860"/><path d="M994.85,618.54l-1.54-2.4a8.08,8.08,0,1,0-8.75-13.59l-1.54-2.4a10.93,10.93,0,0,1,11.83,18.39Z" fill="#535860"/><path d="M791.35,419.52a5.56,5.56,0,0,1-4.73-2.61l1.23-.77a4.12,4.12,0,0,0,7-4.39l1.24-.77a5.58,5.58,0,0,1-4.71,8.54Z" fill="#535860"/><path d="M938.77,614.39a11.43,11.43,0,1,1,14.54-17.63l-1.9,2.3a8.44,8.44,0,0,0-11.88,1.14,8.45,8.45,0,0,0,1.14,11.89Z" fill="#535860"/><path d="M851,517.09h0l.37,0A3.46,3.46,0,0,1,851,524l-.37,0a3.46,3.46,0,0,1,.36-6.9m0-1.54a5,5,0,0,0-.52,10,4.71,4.71,0,0,0,.53,0,5,5,0,0,0,.52-10l-.53,0Z" fill="#535860"/><path d="M942.84,392.42h0a5.42,5.42,0,1,1-4.93,3.18,5.41,5.41,0,0,1,4.93-3.18m0-2.41a7.83,7.83,0,0,0-3.24,15,7.77,7.77,0,0,0,3.24.71,7.84,7.84,0,1,0,0-15.68Z" fill="#535860"/><path d="M847.58,564.91h0a4.7,4.7,0,1,1-2.9,8.39,4.69,4.69,0,0,1,2.9-8.39m0-2.09a6.78,6.78,0,1,0,4.18,1.44,6.78,6.78,0,0,0-4.18-1.44Z" fill="#535860"/><path d="M803.54,724h0a3.28,3.28,0,0,1,3.25,3.72,3.29,3.29,0,0,1-1.26,2.16,3.27,3.27,0,1,1-4-5.21,3.19,3.19,0,0,1,2-.67m0-1.46a4.73,4.73,0,1,0,3.77,1.87,4.75,4.75,0,0,0-3.77-1.87Z" fill="#535860"/><path d="M961.83,464.44h0a5.92,5.92,0,0,1,2,11.49,5.81,5.81,0,0,1-2,.36,5.92,5.92,0,0,1-2-11.49,5.87,5.87,0,0,1,2-.36m0-2.65a8.57,8.57,0,1,0,8.06,5.64,8.63,8.63,0,0,0-8.06-5.64Z" fill="#535860"/><path d="M963.68,712.3h0a3.38,3.38,0,1,1-1.49,6.42,3.38,3.38,0,0,1,1.49-6.42m0-1.5a4.88,4.88,0,1,0,2.16.5,4.88,4.88,0,0,0-2.16-.5Z" fill="#535860"/><path d="M918,439.89l5.48,6.06-8.13.75-5.48-6.06,8.13-.75m.82-2.09L905.67,439l8.85,9.78,13.13-1.21-8.84-9.78Z" fill="#535860"/><path d="M796.63,634.4l5.61,5.94-1.39,8-5.6-5.94,1.38-8.05m-1.3-4.3-2.24,13,9.06,9.59,2.24-13-9.06-9.59Z" fill="#535860"/><path d="M851.89,435.74l5.93,2.1,1.89,6-5.93-2.09-1.89-6m-2.41-2.49,3,9.7,9.59,3.38-3-9.7-9.59-3.38Z" fill="#535860"/><path d="M966.45,640.36l.85,7.17-5.23,5-.86-7.17,5.24-5m1.34-3.75-8.45,8.06,1.38,11.6,8.45-8.06-1.38-11.6Z" fill="#535860"/><path d="M891.81,565.52l5.73,3.18.9,6.49L892.71,572l-.9-6.49m-2-3L891.22,573l9.26,5.14L899,567.68l-9.27-5.13Z" fill="#535860"/><path d="M915.63,731.17l-2.69,5.49-6,1.15,2.68-5.49,6-1.15m2.67-2L908.6,731l-4.33,8.88L914,738l4.33-8.87Z" fill="#535860"/><path d="M979.93,527.59l-6.76,10.16-12.19.68,6.77-10.16,12.18-.68m5.84-3.34-19.69,1.1-10.94,16.42,19.7-1.1,10.93-16.42Z" fill="#535860"/><path d="M824.42,389.55l8,8.3-1.85,11.38-8-8.31,1.86-11.37m-1.89-6.07-3,18.39,12.92,13.43,3-18.39-12.91-13.43Z" fill="#535860"/><path d="M801.16,469a1.36,1.36,0,0,1-.58-.13,1.39,1.39,0,0,1-.67-1.84,6,6,0,0,1,8.61-2.67,3.28,3.28,0,0,0,4.72-1.47,6,6,0,0,1,8.61-2.68,1.38,1.38,0,1,1-1.4,2.38,3.33,3.33,0,0,0-2.69-.35,3.3,3.3,0,0,0-2,1.82,6,6,0,0,1-8.61,2.68,3.27,3.27,0,0,0-4.72,1.46A1.38,1.38,0,0,1,801.16,469Z" fill="#535860"/><path d="M842.23,630.94a1.26,1.26,0,0,1-.8-.28,5.6,5.6,0,0,1-.5-8.38,3,3,0,0,0-.27-4.59,5.6,5.6,0,0,1-.5-8.38,1.29,1.29,0,0,1,1.84,1.8,3.09,3.09,0,0,0-.92,2.35,3.15,3.15,0,0,0,1.19,2.23,5.6,5.6,0,0,1,.5,8.38,3,3,0,0,0,.27,4.59,1.28,1.28,0,0,1-.81,2.28Z" fill="#535860"/><path d="M856.15,721.91a6.53,6.53,0,0,1-4.16-1.46,6.64,6.64,0,0,1-2.43-4.84,3.58,3.58,0,0,0-4.2-3.41,6.57,6.57,0,0,1-7.67-6.22,1.5,1.5,0,0,1,1.42-1.59,1.52,1.52,0,0,1,1.6,1.42,3.56,3.56,0,0,0,4.2,3.4,6.61,6.61,0,0,1,7.67,6.23,3.56,3.56,0,0,0,4.2,3.4,1.51,1.51,0,0,1,.45,3A6.54,6.54,0,0,1,856.15,721.91Z" fill="#535860"/><path d="M793.33,515.76h-.16a1,1,0,0,1,.06-2,2.37,2.37,0,0,0,1.87-.72,2.5,2.5,0,0,0,.68-1.9,4.45,4.45,0,0,1,4.65-4.8,2.43,2.43,0,0,0,2.55-2.63,1,1,0,1,1,2-.13,4.47,4.47,0,0,1-4.65,4.8,2.43,2.43,0,0,0-1.88.73,2.46,2.46,0,0,0-.67,1.9,4.48,4.48,0,0,1-1.25,3.45A4.43,4.43,0,0,1,793.33,515.76Z" fill="#535860"/><path d="M917.57,525.36a4.67,4.67,0,0,1-2.3-.6,4.77,4.77,0,0,1-2.34-3.14,2.58,2.58,0,0,0-3.43-1.89,4.77,4.77,0,0,1-6.25-3.47,1.1,1.1,0,0,1,2.13-.51,2.57,2.57,0,0,0,3.42,1.9,4.79,4.79,0,0,1,6.26,3.47,2.58,2.58,0,0,0,3.42,1.9,1.09,1.09,0,1,1,.7,2.07A5,5,0,0,1,917.57,525.36Z" fill="#535860"/><path d="M803,574a1.3,1.3,0,0,1-.94-.4,5.75,5.75,0,0,1,.49-8.6,3.19,3.19,0,0,0,1.21-2.3,3.16,3.16,0,0,0-.94-2.41,5.76,5.76,0,0,1,.49-8.61,1.32,1.32,0,1,1,1.66,2.05,3.11,3.11,0,0,0-.26,4.71,5.75,5.75,0,0,1-.5,8.6,3.13,3.13,0,0,0-.27,4.72A1.32,1.32,0,0,1,803,574Z" fill="#535860"/><path d="M995.4,442.09a5.67,5.67,0,0,1-2-.37,1.26,1.26,0,1,1,.88-2.37,3,3,0,0,0,4-2.1,5.53,5.53,0,0,1,7.34-3.82,3,3,0,0,0,4-2.09,1.27,1.27,0,1,1,2.45.64,5.53,5.53,0,0,1-7.34,3.83,3,3,0,0,0-4,2.09,5.57,5.57,0,0,1-2.82,3.57A5.46,5.46,0,0,1,995.4,442.09Z" fill="#535860"/><path d="M905.09,626.79a.79.79,0,0,1-.59-.26l-4.63-5.24a.79.79,0,1,1,1.18-1l4.63,5.24a.78.78,0,0,1-.59,1.31Z" fill="#535860"/><path d="M872.56,481.08a.94.94,0,0,1-.22-1.85l8.12-1.88a.94.94,0,0,1,.42,1.83l-8.11,1.88A.75.75,0,0,1,872.56,481.08Z" fill="#535860"/><path d="M1010.7,717.07a.79.79,0,0,1-.73-.48l-2.84-6.4a.79.79,0,1,1,1.45-.65l2.84,6.41a.79.79,0,0,1-.4,1A.92.92,0,0,1,1010.7,717.07Z" fill="#535860"/><path d="M1007.58,667a1.33,1.33,0,0,1-.08-2.65l11.71-.68a1.32,1.32,0,1,1,.15,2.64l-11.71.69Z" fill="#535860"/><path d="M930.91,683a.7.7,0,0,1-.67-.51l-1.76-6a.7.7,0,0,1,1.35-.4l1.76,6a.71.71,0,0,1-.48.88A.69.69,0,0,1,930.91,683Z" fill="#535860"/><polygon points="989.93 751.3 984.07 743.11 985.68 741.96 990.39 748.53 996.97 743.83 998.12 745.44 989.93 751.3" fill="#535860"/><polygon points="1000.82 396.82 990.31 388.01 992.05 385.95 1000.49 393.02 1007.56 384.58 1009.63 386.31 1000.82 396.82" fill="#535860"/><polygon points="1009.6 508.4 1008.26 500.69 1000.55 502.04 1000.22 500.15 1009.82 498.48 1011.49 508.07 1009.6 508.4" fill="#535860"/></g></g></svg>