<svg id="Layer_1" data-name="Layer 1" xmlns="http://www.w3.org/2000/svg" viewBox="0 0 24 24"><title>iconos</title><path d="M22.93,2.52H1V9a2.47,2.47,0,0,0,1,2l.41.2v10.5H9V12.78h6.56v8.87h6.17V11.07L22,11a2.69,2.69,0,0,0,.32-.27A2.4,2.4,0,0,0,23,9V5.76ZM14.45,5.77h3.66V9h0a1.83,1.83,0,1,1-3.66,0Zm-.3,4.39h0Zm-4-4.39h3.66V9a1.83,1.83,0,0,1-3.66,0ZM9.9,10.2l-.05,0h0Zm-4-4.43H9.55V9A1.83,1.83,0,0,1,5.89,9Zm-.3,4.37h0ZM1.65,9V5.77H5.31V9A1.83,1.83,0,0,1,1.65,9ZM22.28,9a1.83,1.83,0,0,1-3.66,0V5.77h3.66Z" fill="#40bcd8"/></svg>