<svg width="16" height="16" xmlns="http://www.w3.org/2000/svg">
 <title/>

 <g>
  <title>background</title>
  <rect fill="none" id="canvas_background" height="402" width="582" y="-1" x="-1"/>
 </g>
 <g>
  <title>Layer 1</title>
  <path fill="#c1c1c1" id="Rectangle 169 copy" d="m7,9l0,3l2,0l0,-3l2,0l-3,-4l-3,4l2,0zm-7,1c0,-1.34828 0.89589,-2.49246 2.12776,-2.86891c0.37255,-1.23316 1.51754,-2.13109 2.87224,-2.13109c0.17401,0 0.34457,0.01482 0.51047,0.04325c0.68525,-1.21941 1.99118,-2.04325 3.48953,-2.04325c2.20914,0 4,1.79086 4,4c1.66841,0.00508 3,1.34628 3,3c0,1.65348 -1.34739,3 -3.00948,3l-9.98104,0c-1.67285,0 -3.00948,-1.34315 -3.00948,-3zm0,0"/>
 </g>
</svg>