<svg width="32" height="32" xmlns="http://www.w3.org/2000/svg">
 <title/>
 <desc/>

 <g>
  <title>background</title>
  <rect fill="none" id="canvas_background" height="402" width="582" y="-1" x="-1"/>
 </g>
 <g>
  <title>Layer 1</title>
  <path fill="#b2b2b2" id="inbox-download" d="m16,16l-3.25,-3.25l-0.75,0.75l4.5,4.5l4.5,-4.5l-0.75,-0.75l-3.25,3.25l0,-11l-1,0l0,11l0,0l0,0zm5,2l6.77502,0l0,0l-4.375,-7l-5.40002,0l0,-1l6,0l5,8l0,1l0,8l-25,0l0,-9l5,-8l6,0l0,1l-5.40002,0l-4.375,7l6.77502,0l0,2c0,1.10457 0.89586,2 1.99739,2l5.00522,0c1.10313,0 1.99739,-0.88773 1.99739,-2l0,-2l0,0z"/>
 </g>
</svg>