<svg id="Layer_1" data-name="Layer 1" xmlns="http://www.w3.org/2000/svg" viewBox="0 0 24 24"><title>iconos</title><path d="M12.34,22.82a12.89,12.89,0,0,1-9.83-4.55l-.17-.19.09-.24A3.53,3.53,0,0,1,3,16.78a3.47,3.47,0,0,1,1.49-1,9.7,9.7,0,0,1,1.69-.47l.48-.11a6.68,6.68,0,0,0,1.78-.64,3.74,3.74,0,0,0,1.11-1c.06-.08.11-.21,0-.54a3.47,3.47,0,0,0-.72-1.28A6,6,0,0,1,7.75,9.5a10.27,10.27,0,0,1-.29-3.67,7.92,7.92,0,0,1,.28-1.6A4.21,4.21,0,0,1,9.2,2.12,5.27,5.27,0,0,1,12.31,1c.14,0,.67.05.71.06a5,5,0,0,1,3.24,1.81,4.44,4.44,0,0,1,1,2.6v.18a17.23,17.23,0,0,1,0,2.16,6.84,6.84,0,0,1-1.21,3.64l-.13.17c-.22.31-.43.6-.62.91a2,2,0,0,0-.21.55.69.69,0,0,0,.22.69,4,4,0,0,0,1.81,1.13c.45.13,2.17.57,2.19.58A3.87,3.87,0,0,1,22,17.19a4.6,4.6,0,0,1,.29.59l.1.24-.17.2A12.89,12.89,0,0,1,12.34,22.82Z" fill="#40bcd8"/></svg>