<svg id="Layer_1" data-name="Layer 1" xmlns="http://www.w3.org/2000/svg" viewBox="0 0 15 15"><title>w</title><path d="M14.46,1.5H.5V5.59a1.55,1.55,0,0,0,.66,1.27L1.42,7v6.68H5.59V8H9.76v5.64h3.93V6.94l.15-.08a1.06,1.06,0,0,0,.2-.17,1.51,1.51,0,0,0,.46-1.1v-2ZM9.06,3.56h2.33v2h0a1.17,1.17,0,1,1-2.33,0Zm-.19,2.8h0ZM6.31,3.56H8.64v2a1.17,1.17,0,1,1-2.33,0ZM6.16,6.39l0,0h0A.05.05,0,0,1,6.16,6.39ZM3.61,3.56H5.94v2a1.17,1.17,0,1,1-2.33,0ZM3.42,6.35ZM.91,5.59v-2H3.24v2a1.17,1.17,0,1,1-2.33,0ZM14,5.59a1.17,1.17,0,1,1-2.33,0v-2H14Z" fill="#8e9aba"/></svg>