<svg xmlns="http://www.w3.org/2000/svg" viewBox="0 0 32 32"><title>markers</title><g id="Layer_1" data-name="Layer 1"><path d="M16.75.86C11.7.86,6.62,5.12,6.54,10.37c0,3,1.09,5.61,2.37,8.29,1.17,2.47,7,12.59,7.84,12.59s6.89-10.33,7.69-12.11c1.3-2.85,2.94-6.14,2.48-9.37A10.26,10.26,0,0,0,16.75.86Z" fill="#1d2b4a"/><circle cx="16.75" cy="11.06" r="6.82" fill="#fff"/><path d="M20.34,13.72a1.2,1.2,0,0,0-.18-.52,1.23,1.23,0,0,0-.85-.54l-.79-.21a1.55,1.55,0,0,1-.71-.44.41.41,0,0,1-.12-.39.72.72,0,0,1,.1-.24c.08-.13.18-.26.27-.39a2.3,2.3,0,0,0,.4-1.22,5.48,5.48,0,0,0,0-.81,1.5,1.5,0,0,0-.3-.84,1.67,1.67,0,0,0-1.06-.59l-.22,0a1.72,1.72,0,0,0-1,.37,1.37,1.37,0,0,0-.47.67,3.38,3.38,0,0,0-.09.54,3.52,3.52,0,0,0,.1,1.25,1.91,1.91,0,0,0,.37.74,1.61,1.61,0,0,1,.29.51.35.35,0,0,1,0,.33,1.35,1.35,0,0,1-.44.38,2.36,2.36,0,0,1-.67.25,4.88,4.88,0,0,0-.75.2,1.1,1.1,0,0,0-.47.32,1.31,1.31,0,0,0-.26.59,2.22,2.22,0,0,0,0,.63.08.08,0,0,0,0,0h6.91s.05,0,.05-.06S20.36,13.9,20.34,13.72Z" fill="#1d2b4a"/></g></svg>