<svg xmlns="http://www.w3.org/2000/svg" viewBox="0 0 32 32"><title>markers</title><g id="Layer_1" data-name="Layer 1"><path d="M15.75.7C10.7.7,5.62,5,5.54,10.22c0,3,1.09,5.6,2.37,8.28,1.17,2.47,7,12.59,7.84,12.59S22.64,20.76,23.44,19c1.3-2.86,2.94-6.14,2.48-9.38a10.38,10.38,0,0,0-3.55-6.49A10.26,10.26,0,0,0,15.75.7Z" fill="#ff5b15"/><circle cx="15.75" cy="10.9" r="6.82" fill="#fff"/><path d="M19.55,7.5H11.94V9.73a.84.84,0,0,0,.36.7l.14.07v3.64h2.27V11.07H17v3.07h2.14V10.47l.08,0,.12-.09a.87.87,0,0,0,.24-.61V8.63ZM16.6,8.63h1.27v1.1h0a.63.63,0,0,1-.63.64.64.64,0,0,1-.64-.64Zm-.1,1.52h0ZM15.11,8.63h1.27v1.1a.64.64,0,0,1-.64.64.63.63,0,0,1-.63-.64ZM15,10.17l0,0h0Zm-1.4-1.54H14.9v1.1a.63.63,0,0,1-.63.64.64.64,0,0,1-.64-.64Zm-.1,1.52Zm-1.37-.42V8.63h1.27v1.1a.63.63,0,0,1-.63.64A.64.64,0,0,1,12.16,9.73Zm7.16,0a.63.63,0,0,1-.63.64.64.64,0,0,1-.64-.64V8.63h1.27Z" fill="#ff5b15"/></g></svg>