<svg id="Layer_1" data-name="Layer 1" xmlns="http://www.w3.org/2000/svg" viewBox="0 0 88 87"><title>n</title><circle cx="43.5" cy="43.5" r="42.5" fill="#d1d5de"/><path d="M44.4,28.28l32,3.24a1.15,1.15,0,0,1,0,.19c-.53,2.44-1.07,4.88-1.6,7.32q-.65,3-1.31,6s0,0,0,0c-.07.33-.14.38-.47.41l-1.62.2-1.55.18-1.57.19-1.2.14-1.57.19-1.2.15-1.58.19-1.2.14-1.57.19-1.18.14-1.59.2L56,47.58l-1.26.15-1.18.14-1.64.2-1.57.18-1.57.19-1.18.14c-.36.05-.72.08-1.08.1a1.1,1.1,0,0,0-1,.64,2.83,2.83,0,0,0-.16.36,1.7,1.7,0,0,1-.59.87A5.37,5.37,0,0,1,44,51c-2.3,1.22-4.62,2.42-6.92,3.63a2.8,2.8,0,0,0-.46.3,1.49,1.49,0,0,0-.54,1.39.84.84,0,0,0,.78.8c.31.05.62.06.93.09h32a1.83,1.83,0,0,1,.33,0,.34.34,0,0,1,.31.38.61.61,0,0,1-.58.61H37.82a6.09,6.09,0,0,1-1.35-.09,3,3,0,0,1-.58-.19,1.63,1.63,0,0,1-1-1.75,2.53,2.53,0,0,1,1.1-2,7.23,7.23,0,0,1,.95-.6c2.07-1.09,4.13-2.18,6.21-3.26a2.79,2.79,0,0,0,1.3-1.35,31.28,31.28,0,0,0,2-5.22,20.74,20.74,0,0,0,.62-3.4,17,17,0,0,0,.06-2.67,13.81,13.81,0,0,0-2.57-7.49,13.12,13.12,0,0,0-1.44-1.63l-.57-.58a1.18,1.18,0,0,0-.47-.33l-2.91-1.2-.26-.13c-.12-.08-.15-.16-.09-.28s.24-.41.36-.61a.19.19,0,0,1,.24-.08l.22.08,3.9,1.64.41.2a.8.8,0,0,1,.42.76v.11A.22.22,0,0,1,44.4,28.28Z" fill="#fff"/><path d="M13.76,28.88h8c.89,0,1.78,0,2.67,0a.57.57,0,0,1,.58.35l6.31,11.93.18.32c0-.14.1-.24.13-.34l.63-2q1.5-4.92,3-9.83l0-.12c.08-.22.13-.27.36-.27h6.79a1.2,1.2,0,0,1-.07.26l-2.94,9.64L35.71,51.06l0,.08c-.09.3-.18.37-.49.37H29.71a.6.6,0,0,1-.59-.36L22.58,38.88l-.22-.39a.54.54,0,0,0-.16.32c-.26.83-.51,1.67-.77,2.51l-3,9.76a.24.24,0,0,0,0,.08c-.1.28-.18.35-.47.35H11.26l.07-.24q1.83-6,3.67-12c.56-1.85,1.12-3.71,1.7-5.56a2.81,2.81,0,0,0-.17-2.13A5,5,0,0,0,15.33,30a8.56,8.56,0,0,0-1.36-1l-.21-.12Z" fill="#fff"/><path d="M65.4,59.83a1.92,1.92,0,0,1,.87.18,1.42,1.42,0,0,1,.84,1.39,1.89,1.89,0,0,1-.29,1,2.66,2.66,0,0,1-2.17,1.27,2,2,0,0,1-.77-.08,1.52,1.52,0,0,1-1.05-1.92,2.31,2.31,0,0,1,.86-1.22A2.78,2.78,0,0,1,65.4,59.83Z" fill="#fff"/><path d="M39.05,59.84a1.86,1.86,0,0,1,.77.12,1.43,1.43,0,0,1,.93,1.74A2.45,2.45,0,0,1,39,63.49a2.41,2.41,0,0,1-1.38.07,1.51,1.51,0,0,1-1.08-2.08A2.48,2.48,0,0,1,38,60,2.36,2.36,0,0,1,39.05,59.84Z" fill="#fff"/></svg>