<svg id="Layer_1" data-name="Layer 1" xmlns="http://www.w3.org/2000/svg" viewBox="0 0 55 45"><title>w</title><g id="Clock"><path d="M12.2,39.91a30,30,0,0,1,4.28-1.14,14,14,0,0,0,3.85-1.39,8.27,8.27,0,0,0,2.5-2.21A2,2,0,0,0,23,33.31a7.76,7.76,0,0,0-1.63-2.91,11.5,11.5,0,0,1-2.12-4.2,20.17,20.17,0,0,1-.56-7.13A15.33,15.33,0,0,1,19.26,16a7.47,7.47,0,0,1,2.66-3.83,9.72,9.72,0,0,1,5.78-2.08c.18,0,1.17.09,1.27.11a9.24,9.24,0,0,1,6,3.35,8.13,8.13,0,0,1,1.75,4.77,37.83,37.83,0,0,1,.1,4.64,12.93,12.93,0,0,1-2.29,6.92c-.53.74-1.07,1.47-1.54,2.25a4.43,4.43,0,0,0-.53,1.36,2.23,2.23,0,0,0,.65,2.21,9,9,0,0,0,4.06,2.53c.94.29,4.47,1.19,4.47,1.19a6.94,6.94,0,0,1,4.87,3.06,7.77,7.77,0,0,1,.54,1.08,25.28,25.28,0,1,0-38.6.1,6.06,6.06,0,0,1,3.74-3.75Z" fill="#071b36"/></g></svg>