<svg id="Layer_1" data-name="Layer 1" xmlns="http://www.w3.org/2000/svg" viewBox="0 0 25 21"><title>w</title><g id="Clock"><path d="M5.44,18.25a11.93,11.93,0,0,1,1.95-.52,6.45,6.45,0,0,0,1.75-.64,3.65,3.65,0,0,0,1.14-1,1,1,0,0,0,.08-.85,3.39,3.39,0,0,0-.74-1.32,5.48,5.48,0,0,1-1-1.91A9.32,9.32,0,0,1,8.4,8.77a8.21,8.21,0,0,1,.25-1.4A3.4,3.4,0,0,1,9.86,5.63a4.43,4.43,0,0,1,2.63-1l.58.05A4.19,4.19,0,0,1,15.8,6.25a3.78,3.78,0,0,1,.8,2.17,18.81,18.81,0,0,1,0,2.12,6,6,0,0,1-1,3.14c-.25.34-.49.67-.71,1a2.28,2.28,0,0,0-.24.63,1,1,0,0,0,.3,1,4.11,4.11,0,0,0,1.84,1.15c.43.13,2,.54,2,.54A3.08,3.08,0,0,1,21.3,19.9,11.5,11.5,0,1,0,3.74,20a3,3,0,0,1,.49-.86A2.77,2.77,0,0,1,5.44,18.25Z" fill="#fff"/></g></svg>