<svg id="Layer_1" data-name="Layer 1" xmlns="http://www.w3.org/2000/svg" viewBox="0 0 87 87"><title>nocric</title><path d="M28.38,22.67V53.49H58.5V22.67ZM56.83,45H30.61V25.46H56.83Z" fill="#071b36"/><circle cx="35.05" cy="31.02" r="2.33" fill="#071b36"/><polygon points="32.73 45.13 55.06 45.13 51.64 30.87 46.06 38 42.34 33.35 32.73 45.13" fill="#071b36"/><path d="M26.36,64.36a2.77,2.77,0,0,1-1.08.19,1.9,1.9,0,0,1-2-2.06,2,2,0,0,1,2.13-2.14,2.22,2.22,0,0,1,1,.18l-.12.43a2.06,2.06,0,0,0-.83-.17,1.52,1.52,0,0,0-1.59,1.68,1.49,1.49,0,0,0,1.57,1.64,2.16,2.16,0,0,0,.86-.17Z" fill="#071b36"/><path d="M28.57,64.49l0-.37h0a1.09,1.09,0,0,1-.89.44.84.84,0,0,1-.9-.84c0-.71.63-1.1,1.76-1.09v-.06a.61.61,0,0,0-.67-.68,1.5,1.5,0,0,0-.76.22l-.12-.35a1.8,1.8,0,0,1,1-.26c.9,0,1.11.61,1.11,1.2v1.09a4.9,4.9,0,0,0,.05.7ZM28.49,63c-.58,0-1.24.09-1.24.66a.47.47,0,0,0,.5.5.73.73,0,0,0,.71-.49.47.47,0,0,0,0-.17Z" fill="#071b36"/><path d="M29.86,62.36c0-.31,0-.55,0-.79h.46l0,.47h0a1,1,0,0,1,.92-.54.87.87,0,0,1,.83.58h0a1.09,1.09,0,0,1,.33-.37,1,1,0,0,1,.64-.21c.39,0,1,.25,1,1.27v1.72h-.52V62.83c0-.56-.21-.9-.64-.9a.7.7,0,0,0-.63.49,1,1,0,0,0,0,.26v1.81h-.52V62.74c0-.47-.2-.81-.61-.81a.74.74,0,0,0-.66.54.68.68,0,0,0,0,.26v1.76h-.52Z" fill="#071b36"/><path d="M34.87,64.49c0-.2,0-.49,0-.75V60.2h.53V62h0a1.09,1.09,0,0,1,1-.54A1.31,1.31,0,0,1,37.66,63a1.39,1.39,0,0,1-1.31,1.57,1.06,1.06,0,0,1-1-.55h0l0,.48Zm.55-1.17a1.23,1.23,0,0,0,0,.19.83.83,0,0,0,.8.62c.56,0,.89-.45.89-1.12s-.3-1.09-.87-1.09a.85.85,0,0,0-.81.66,1.05,1.05,0,0,0,0,.21Z" fill="#071b36"/><path d="M38.92,60.74a.32.32,0,0,1-.34.33.33.33,0,0,1,0-.66A.32.32,0,0,1,38.92,60.74Zm-.59,3.75V61.57h.53v2.92Z" fill="#071b36"/><path d="M41.36,64.49l0-.37h0a1.09,1.09,0,0,1-.89.44.84.84,0,0,1-.9-.84c0-.71.63-1.1,1.76-1.09v-.06a.61.61,0,0,0-.66-.68,1.51,1.51,0,0,0-.77.22l-.12-.35a1.83,1.83,0,0,1,1-.26c.9,0,1.12.61,1.12,1.2v1.09a5,5,0,0,0,0,.7ZM41.28,63c-.58,0-1.24.09-1.24.66a.47.47,0,0,0,.51.5.71.71,0,0,0,.7-.49.47.47,0,0,0,0-.17Z" fill="#071b36"/><path d="M42.65,62.48c0-.35,0-.64,0-.91h.46l0,.57h0a.89.89,0,0,1,.81-.64.41.41,0,0,1,.16,0V62l-.19,0a.75.75,0,0,0-.71.68,2,2,0,0,0,0,.25v1.56h-.53Z" fill="#071b36"/><path d="M46.5,60.74a.32.32,0,0,1-.34.33.32.32,0,0,1-.32-.33.33.33,0,0,1,.33-.33A.32.32,0,0,1,46.5,60.74Zm-.59,3.75V61.57h.53v2.92Z" fill="#071b36"/><path d="M47.32,62.36c0-.31,0-.55,0-.79h.47l0,.47h0a1,1,0,0,1,.92-.54.87.87,0,0,1,.83.58h0a1.07,1.07,0,0,1,.32-.37,1,1,0,0,1,.65-.21c.39,0,1,.25,1,1.27v1.72H51V62.83c0-.56-.2-.9-.63-.9a.7.7,0,0,0-.63.49,1,1,0,0,0,0,.26v1.81h-.52V62.74c0-.47-.21-.81-.61-.81a.73.73,0,0,0-.66.54.68.68,0,0,0,0,.26v1.76h-.52Z" fill="#071b36"/><path d="M54,64.49l0-.37h0a1.09,1.09,0,0,1-.89.44.84.84,0,0,1-.9-.84c0-.71.63-1.1,1.76-1.09v-.06a.61.61,0,0,0-.67-.68,1.5,1.5,0,0,0-.76.22l-.12-.35a1.83,1.83,0,0,1,1-.26c.9,0,1.12.61,1.12,1.2v1.09a5,5,0,0,0,0,.7ZM53.89,63c-.58,0-1.24.09-1.24.66a.47.47,0,0,0,.51.5.71.71,0,0,0,.7-.49.47.47,0,0,0,0-.17Zm.27-2.7-.74.87H53l.53-.87Z" fill="#071b36"/><path d="M57.78,61.57c0,.21,0,.44,0,.8v1.7a1.68,1.68,0,0,1-.42,1.33,1.51,1.51,0,0,1-1.06.35,1.9,1.9,0,0,1-1-.24l.14-.4a1.62,1.62,0,0,0,.85.23c.55,0,1-.29,1-1V64h0a1.07,1.07,0,0,1-.94.49,1.31,1.31,0,0,1-1.24-1.43,1.4,1.4,0,0,1,1.32-1.55,1,1,0,0,1,.91.51h0l0-.44Zm-.55,1.15a.61.61,0,0,0,0-.24.77.77,0,0,0-.74-.56c-.51,0-.87.42-.87,1.1s.29,1,.86,1a.78.78,0,0,0,.74-.54.9.9,0,0,0,0-.28Z" fill="#071b36"/><path d="M58.93,63.12a.94.94,0,0,0,1,1,2,2,0,0,0,.81-.15l.09.38a2.39,2.39,0,0,1-1,.18,1.36,1.36,0,0,1-1.44-1.47A1.42,1.42,0,0,1,59.8,61.5,1.24,1.24,0,0,1,61,62.88c0,.11,0,.19,0,.24Zm1.56-.38a.76.76,0,0,0-.74-.86.88.88,0,0,0-.81.86Z" fill="#071b36"/><path d="M61.66,62.36c0-.31,0-.55,0-.79h.47l0,.48h0a1.06,1.06,0,0,1,1-.55c.4,0,1,.24,1,1.24v1.75h-.53V62.8c0-.47-.18-.86-.68-.86a.76.76,0,0,0-.71.54.66.66,0,0,0,0,.25v1.76h-.53Z" fill="#071b36"/></svg>