<svg id="Layer_1" data-name="Layer 1" xmlns="http://www.w3.org/2000/svg" viewBox="0 0 32 32"><title>w</title><path d="M10.8,17.91h-.14c-.92-.1-1.5-1.06-1.76-2a7.63,7.63,0,0,1-1.54-.83,2.42,2.42,0,0,1-2.59-.39,2.45,2.45,0,0,1,.14-2.63,7,7,0,0,1-.5-1.67C3.58,10,2.75,9.23,2.85,8.31s1-1.49,1.95-1.75A7.68,7.68,0,0,1,5.64,5,2.43,2.43,0,0,1,6,2.42a2.43,2.43,0,0,1,2.63.15,6.68,6.68,0,0,1,1.67-.5c.44-.83,1.2-1.66,2.12-1.56s1.49,1.05,1.75,2a7.37,7.37,0,0,1,1.54.83,2.44,2.44,0,0,1,2.6.39,2.43,2.43,0,0,1-.15,2.63A6.56,6.56,0,0,1,18.68,8c.83.44,1.66,1.2,1.57,2.12s-1.06,1.49-2,1.75a7.17,7.17,0,0,1-.83,1.54,2.44,2.44,0,0,1-.39,2.6,2.43,2.43,0,0,1-2.63-.15,6.44,6.44,0,0,1-1.67.5A2.53,2.53,0,0,1,10.8,17.91ZM7.54,14l.22.17a6,6,0,0,0,1.74.94l.28.1.06.28c.16.75.58,1.4.92,1.43s.88-.51,1.19-1.21l.12-.27.29,0a6,6,0,0,0,1.89-.56l.26-.13.24.16c.65.42,1.4.58,1.67.36s.26-1,0-1.7l-.1-.27.18-.23a6.22,6.22,0,0,0,.93-1.74l.1-.28.28-.06c.75-.16,1.4-.57,1.43-.92S18.71,9.11,18,8.8l-.27-.12,0-.29a6.35,6.35,0,0,0-.57-1.89L17,6.24,17.17,6c.42-.65.58-1.4.36-1.67s-1-.26-1.7,0l-.27.1-.23-.17a6.11,6.11,0,0,0-1.74-.94l-.27-.1L13.25,3c-.16-.75-.57-1.4-.92-1.43s-.88.51-1.19,1.21L11,3l-.28,0a6,6,0,0,0-1.9.56l-.26.13-.24-.16c-.65-.42-1.4-.58-1.67-.36s-.26,1,0,1.7l.1.27-.17.23a6.25,6.25,0,0,0-.94,1.74l-.1.28L5.3,7.5c-.75.16-1.39.57-1.43.92s.51.88,1.22,1.19l.26.12,0,.29A6,6,0,0,0,6,11.91l.13.26-.16.24c-.41.65-.58,1.4-.36,1.67s1,.26,1.71,0Zm4,.34a5.09,5.09,0,0,1-4-1.88h0A5.1,5.1,0,0,1,15.5,6a5,5,0,0,1,1.12,3.73,5.08,5.08,0,0,1-5.07,4.58ZM8.39,11.77a4.06,4.06,0,0,0,7.2-2.15,4,4,0,0,0-.89-3,4.07,4.07,0,0,0-6.31,5.13Z" fill="#3fb961"/><path d="M11.55,11.64a2.43,2.43,0,1,1,1.89-4h0a2.44,2.44,0,0,1-1.89,4Zm0-3.84a1.41,1.41,0,1,0,1.09.52A1.42,1.42,0,0,0,11.55,7.8Z" fill="#3fb961"/><path d="M11.92,31.5H11.8c-.75-.08-1.24-.84-1.46-1.57a5.36,5.36,0,0,1-1.13-.61A2,2,0,0,1,7.1,29a2,2,0,0,1,.08-2.13,5.52,5.52,0,0,1-.37-1.24,2,2,0,0,1-1.24-1.75c.08-.75.84-1.23,1.56-1.45a5.74,5.74,0,0,1,.62-1.14,2,2,0,0,1,.35-2.1,2,2,0,0,1,2.14.07,5.9,5.9,0,0,1,1.24-.37,2,2,0,0,1,1.74-1.24c.75.08,1.23.84,1.46,1.57a5.86,5.86,0,0,1,1.13.61,2,2,0,0,1,2.11.36,2,2,0,0,1-.08,2.14,5.29,5.29,0,0,1,.37,1.23,2,2,0,0,1,1.24,1.75c-.08.75-.84,1.23-1.56,1.45a5.74,5.74,0,0,1-.62,1.14A2,2,0,0,1,16.92,30a2,2,0,0,1-2.14-.08,5.9,5.9,0,0,1-1.24.37A2.06,2.06,0,0,1,11.92,31.5ZM9.38,28.16l.23.18a4.76,4.76,0,0,0,1.33.72l.28.09.06.29c.12.58.43,1,.62,1s.58-.34.83-.89l.12-.26.28,0a4.58,4.58,0,0,0,1.45-.43l.26-.13.25.16c.5.32,1,.41,1.18.29s.17-.65-.05-1.21l-.1-.27.17-.23A4.7,4.7,0,0,0,17,26.12l.1-.27.28-.06c.59-.13,1-.43,1-.63s-.34-.58-.89-.82l-.27-.12,0-.29a5,5,0,0,0-.44-1.45l-.12-.26.15-.24c.33-.51.42-1,.29-1.18s-.65-.17-1.21.05l-.27.1-.23-.18a4.76,4.76,0,0,0-1.33-.72L13.8,20l-.06-.28c-.13-.59-.43-1-.63-1s-.58.34-.82.89l-.12.26-.28,0a4.64,4.64,0,0,0-1.46.43l-.26.13-.24-.16c-.5-.32-1-.41-1.18-.29s-.17.65.05,1.22l.1.26-.17.23A4.7,4.7,0,0,0,8,23l-.1.27-.28.06c-.59.13-1,.43-1,.63s.34.58.89.82l.27.12,0,.29a5,5,0,0,0,.44,1.45l.12.26-.15.24c-.33.51-.42,1-.29,1.18s.65.17,1.21,0Zm3.14.51-.43,0a4.09,4.09,0,0,1-2.77-1.5h0a4.11,4.11,0,1,1,5.79.59A4.05,4.05,0,0,1,12.52,28.67Zm0-7.2a3.08,3.08,0,0,0-2.38,5h0a3.1,3.1,0,0,0,4.34.45,3.08,3.08,0,0,0,.44-4.34,3,3,0,0,0-2.08-1.12Z" fill="#3fb961"/><path d="M12.51,26.58a2,2,0,1,1,1.57-3.3,2,2,0,0,1-.29,2.84A2,2,0,0,1,12.51,26.58Zm0-3a1,1,0,0,0-.63.22,1,1,0,0,0,1.26,1.55,1,1,0,0,0,.36-.67,1,1,0,0,0-.22-.73h0a.94.94,0,0,0-.67-.36Z" fill="#3fb961"/><path d="M24.42,24.26c-.73,0-1.3-.68-1.61-1.35a5.93,5.93,0,0,1-1.22-.44,2,2,0,0,1-2.13-.06,2,2,0,0,1-.23-2.12,5.72,5.72,0,0,1-.54-1.18c-.71-.26-1.44-.79-1.47-1.55s.65-1.34,1.34-1.66A5.18,5.18,0,0,1,19,14.69a2,2,0,0,1,0-2.14,2,2,0,0,1,2.13-.23,6.21,6.21,0,0,1,1.17-.54c.26-.71.79-1.44,1.55-1.47H24a2,2,0,0,1,1.61,1.34,6.26,6.26,0,0,1,1.21.45,2,2,0,0,1,2.14.06,2,2,0,0,1,.23,2.12,6.21,6.21,0,0,1,.54,1.17c.71.27,1.44.8,1.47,1.55s-.66,1.34-1.34,1.66a5.43,5.43,0,0,1-.45,1.22A2,2,0,0,1,29.32,22a2,2,0,0,1-2.13.23,5.17,5.17,0,0,1-1.17.54c-.27.71-.79,1.44-1.55,1.47Zm-2.82-3,.25.14a4.64,4.64,0,0,0,1.43.52l.28.06.1.27c.21.55.56.94.76.94h0c.19,0,.52-.42.69-1l.07-.28.28-.08a4.67,4.67,0,0,0,1.38-.63l.24-.17.26.13c.55.25,1.08.26,1.21.12s.08-.67-.22-1.2l-.14-.25.14-.25a5,5,0,0,0,.53-1.42l.05-.29.27-.1c.57-.21.95-.57.94-.77s-.42-.52-1-.69l-.27-.07L28.78,16a4.69,4.69,0,0,0-.64-1.38L28,14.38l.12-.26c.25-.55.27-1.08.12-1.21s-.67-.07-1.19.22l-.25.14-.25-.14a4.94,4.94,0,0,0-1.43-.53l-.28,0-.1-.27c-.21-.56-.57-.94-.76-.94h0c-.2,0-.53.42-.69,1l-.08.27-.28.08a4.64,4.64,0,0,0-1.37.64l-.24.16L21,13.37c-.54-.25-1.07-.26-1.2-.12s-.08.67.21,1.19l.14.25L20,15a4.75,4.75,0,0,0-.52,1.42l-.06.28-.27.1c-.56.21-.94.58-.94.77s.42.53,1,.69l.28.08.08.28a4.61,4.61,0,0,0,.63,1.37l.17.24-.13.27c-.25.54-.26,1.07-.12,1.2s.67.08,1.2-.21Zm2.59.09a4.13,4.13,0,0,1-2.79-1.08h0a4.12,4.12,0,1,1,5.81-.24A4.08,4.08,0,0,1,24.19,21.39ZM22.1,19.55a3.08,3.08,0,1,0-.18-4.36,3.09,3.09,0,0,0,.18,4.36Z" fill="#3fb961"/><path d="M24.19,19.31a2,2,0,0,1-1.37-.54,2,2,0,0,1-.65-1.41,2,2,0,0,1,.53-1.45,2,2,0,0,1,2.86-.11h0a2,2,0,0,1,.65,1.4,2,2,0,0,1-1.94,2.1Zm0-3a1,1,0,0,0-1,1,1,1,0,0,0,.32.69,1,1,0,0,0,1.67-.77,1,1,0,0,0-.32-.69h0A1,1,0,0,0,24.19,16.29Z" fill="#3fb961"/></svg>