<svg id="Layer_1" data-name="Layer 1" xmlns="http://www.w3.org/2000/svg" viewBox="0 0 32 32"><title>w</title><g id="Save"><path d="M15.5,31.5A15.5,15.5,0,1,1,31,16,15.51,15.51,0,0,1,15.5,31.5Zm0-28.79A13.29,13.29,0,1,0,28.79,16,13.3,13.3,0,0,0,15.5,2.71Z" fill="#c93535"/><path d="M15.5,27a11,11,0,1,1,11-11A11,11,0,0,1,15.5,27Zm0-19.79A8.79,8.79,0,1,0,24.29,16,8.8,8.8,0,0,0,15.5,7.21Z" fill="#c93535"/><polygon points="20.9 18.91 14.39 18.91 14.39 10.6 16.61 10.6 16.61 16.69 20.9 16.69 20.9 18.91" fill="#c93535"/></g></svg>