<svg id="Layer_1" data-name="Layer 1" xmlns="http://www.w3.org/2000/svg" viewBox="0 0 22 22"><title>n</title><path d="M19.66,21.54H3a1.33,1.33,0,0,1-1.33-1.33V2A1.34,1.34,0,0,1,3,.62H19.66A1.34,1.34,0,0,1,21,2V20.21A1.33,1.33,0,0,1,19.66,21.54ZM3,1.35a.6.6,0,0,0-.6.6V20.21a.6.6,0,0,0,.6.61H19.66a.6.6,0,0,0,.6-.61V2a.6.6,0,0,0-.6-.6Z" fill="#071b36"/><rect x="4.47" y="4.4" width="13.67" height="1.24" fill="#071b36"/><rect x="4.47" y="7.51" width="13.67" height="1.24" fill="#071b36"/><rect x="4.47" y="10.62" width="13.67" height="1.24" fill="#071b36"/><rect x="4.47" y="13.72" width="13.67" height="1.24" fill="#071b36"/><rect x="4.47" y="16.83" width="13.67" height="1.24" fill="#071b36"/></svg>