<svg id="Layer_1" data-name="Layer 1" xmlns="http://www.w3.org/2000/svg" viewBox="0 0 35 35"><title>n</title><g id="Save"><g id="Arrow_24" data-name="Arrow 24"><path d="M18.85,33.2a1.62,1.62,0,0,1-.88-.49,1.52,1.52,0,0,1-.21-1.8,1.59,1.59,0,0,1,1.74-.72,1.56,1.56,0,0,1,1.11,1.48,1.53,1.53,0,0,1-1.23,1.5l-.1,0Z" fill="#d5d5d5"/><path d="M28.24,33.2a1.69,1.69,0,0,1-.83-.34A1.54,1.54,0,0,1,27,31a1.58,1.58,0,0,1,1.73-.83,1.54,1.54,0,0,1,1.18,1.47,1.51,1.51,0,0,1-1.28,1.52l-.1,0Z" fill="#d5d5d5"/><path d="M8.23,14.37v18.8H3V10.27a.39.39,0,0,1,.25-.39l1-.49,7.14-3.57,4.93-2.48c.15-.07.31-.13.45-.21a.61.61,0,0,1,.61,0l2.44,1.16,9.46,4.46,2.31,1.08a.58.58,0,0,1,.38.59c0,2.49,0,5,0,7.47v.19H26.7V14.37Z" fill="#d5d5d5"/><path d="M21.42,31.34c-.06-.21-.11-.4-.18-.59a2.34,2.34,0,0,0-4.44.43c0,.13-.08.17-.2.16-.32,0-.64,0-1,0H15.4a.63.63,0,0,1-.61-.62c0-.28,0-.56,0-.85,0-2.6,0-5.2,0-7.8,0-.26,0-.53,0-.79a.52.52,0,0,1,.52-.5,4.36,4.36,0,0,1,.51,0h8a1.53,1.53,0,0,1,.3,0,.54.54,0,0,1,.55.55,2.37,2.37,0,0,1,0,.46q0,4.27,0,8.56a4.38,4.38,0,0,1,0,.5.49.49,0,0,1-.45.45,3.29,3.29,0,0,1-.54.05Z" fill="#d5d5d5"/><path d="M26,31.32a.52.52,0,0,1-.56-.34,2,2,0,0,1-.09-.59c0-2,0-4,0-6,0-.13,0-.26,0-.38a.6.6,0,0,1,.68-.6h2.84a1,1,0,0,1,.87.4l1.78,2.37a2.45,2.45,0,0,1,.44,1.5c0,1,0,2,0,3,0,.47-.23.68-.7.72a2.9,2.9,0,0,1-.51,0s-.09,0-.12-.09a1.17,1.17,0,0,1-.06-.2,2.28,2.28,0,0,0-2-1.71,2.25,2.25,0,0,0-2.34,1.41A4.94,4.94,0,0,0,26,31.32Zm4.89-3.95a4.32,4.32,0,0,0-.27-.53l-.91-1.29c-.16-.21-.31-.43-.48-.64a.5.5,0,0,0-.44-.2H27.38v2.67Z" fill="#d5d5d5"/><path d="M9.79,25H13v2.79H9.79Z" fill="#d5d5d5"/><path d="M9.79,23.93V21.22H13v2.71Z" fill="#d5d5d5"/></g></g></svg>