<svg id="Layer_1" data-name="Layer 1" xmlns="http://www.w3.org/2000/svg" viewBox="0 0 35 35"><title>n</title><g id="Save"><g id="Arrow_24" data-name="Arrow 24"><path d="M8.32,14.37v18.8H3.06V10.27a.39.39,0,0,1,.25-.39l1-.49,7.14-3.57,4.93-2.48c.15-.07.31-.13.45-.21a.61.61,0,0,1,.61,0l2.44,1.16,9.46,4.46,2.31,1.08a.58.58,0,0,1,.38.59c0,2.49,0,20.18,0,22.67v.19H26.79V14.37Z" fill="#d5d5d5"/><rect x="11.55" y="27.79" width="5.48" height="5.48" fill="#d5d5d5"/><rect x="17.8" y="27.79" width="5.48" height="5.48" fill="#d5d5d5"/><rect x="14.74" y="21.54" width="5.48" height="5.48" fill="#d5d5d5"/></g></g></svg>