<svg id="Layer_1" data-name="Layer 1" xmlns="http://www.w3.org/2000/svg" viewBox="0 0 35 35"><title>n</title><g id="Save"><g id="Arrow_24" data-name="Arrow 24"><path d="M17.72,29.45a2.82,2.82,0,0,1-2.64-3.82,34.64,34.64,0,0,1,2.27-5.05c.1-.19.21-.38.3-.59s.1-.13.16,0c.29.57.6,1.12.87,1.69.39.81.77,1.63,1.13,2.46a7.22,7.22,0,0,1,.74,2.39,2.57,2.57,0,0,1-.66,1.93A2.87,2.87,0,0,1,17.72,29.45Zm1.43-1.37a2.47,2.47,0,0,1-2.45-.2l-.26-.22a2.88,2.88,0,0,1-.82-1.52,2.93,2.93,0,0,0-.09.57,2.2,2.2,0,0,0,.07.58,2.11,2.11,0,0,0,3.23,1.17c.13-.09.31-.17.32-.38h0Z" fill="#d5d5d5"/><path d="M18.86,28.76l0,0v0Z" fill="#fefefe"/><path d="M7.77,6.29S12.15,2.91,17.14,3A16.18,16.18,0,0,1,26,6a18.38,18.38,0,0,1,5.9,8.53H19l-1.76-1.76.94-1.36-.65-1.89.32-1.8-1.47,1.8L17,11l-1.14,1.89.82,1.47H2.3C4,7.94,7.77,6.29,7.77,6.29Z" fill="#d5d5d5"/><path d="M28.26,6.81A15.93,15.93,0,0,0,1.07,18.07,15.94,15.94,0,0,0,17,34,15.92,15.92,0,0,0,28.26,6.81ZM2.81,18.07A14.18,14.18,0,0,1,25,6.33L7.44,28.55A14.14,14.14,0,0,1,2.81,18.07ZM17,32.26a14.16,14.16,0,0,1-8.22-2.62L26.33,7.39A14.18,14.18,0,0,1,17,32.26Z" fill="#1d345f"/></g></g></svg>