<svg id="Layer_1" data-name="Layer 1" xmlns="http://www.w3.org/2000/svg" viewBox="0 0 35 35"><title>n</title><g id="Save"><g id="Arrow_24" data-name="Arrow 24"><path d="M3.71,22l3.74,6.78s5.07,3.65,10.9,3.67a15.26,15.26,0,0,0,9.51-3.25L32.72,22H28.55l1.21,1.59L29,25.41v1.36l-.91-1.51.3-1.67L26.58,22H18.24l1.52,2.2L18.09,26l1.21,1.51L17.94,29.2l.91-1.67L17,25.71l1.51-1.51L16.35,22H9.12L8,23.24,7.94,24.5,7,23.18,7.78,22Z" fill="#d5d5d5"/><path d="M29.48,6.41A15.93,15.93,0,1,0,7,28.94,15.93,15.93,0,0,0,29.48,6.41ZM4,17.67A14.21,14.21,0,0,1,18.21,3.48a14.06,14.06,0,0,1,8,2.45L8.65,28.15A14.14,14.14,0,0,1,4,17.67Zm14.19,14.2A14.12,14.12,0,0,1,10,29.24L27.55,7a14.19,14.19,0,0,1-9.34,24.88Z" fill="#1d345f"/></g></g></svg>