<?xml version="1.0" encoding="utf-8"?>
<!-- Generator: Adobe Illustrator 25.0.0, SVG Export Plug-In . SVG Version: 6.00 Build 0)  -->
<svg version="1.1" id="Capa_1" xmlns="http://www.w3.org/2000/svg" xmlns:xlink="http://www.w3.org/1999/xlink" x="0px" y="0px"
	 viewBox="0 0 24 24" style="enable-background:new 0 0 24 24;" xml:space="preserve">
<style type="text/css">
	.st0{fill:#003DA6;}
	.st1{fill:#BE6017;}
	.st2{fill:#F8B133;}
	.st3{fill:#F8B133;stroke:#FFFFFF;stroke-width:0.5;stroke-miterlimit:10;}
	.st4{fill:#FFFFFF;}
	.st5{fill:none;stroke:#FFFFFF;stroke-width:0.5;stroke-linecap:round;stroke-linejoin:round;stroke-miterlimit:10;}
</style>
<g>
	<g>
		<path id="svg_2_10_" class="st0" d="M12,0.4c-4.3,0-7.7,3.5-7.7,7.7c0,1.4,0.4,2.7,1,3.8c0.1,0.2,0.2,0.4,0.3,0.5L12,23.6
			l6.4-11.1c0.1-0.1,0.2-0.3,0.3-0.5l0.1-0.1c0.6-1.1,1-2.4,1-3.8C19.7,3.9,16.3,0.4,12,0.4z M12,4.3c2.1,0,3.9,1.7,3.9,3.9
			c0,2.1-1.7,3.9-3.9,3.9c-2.1,0-3.9-1.7-3.9-3.9C8.1,6,9.9,4.3,12,4.3z"/>
		<path id="svg_3_10_" class="st1" d="M12,3.3c-2.7,0-4.8,2.2-4.8,4.8c0,2.7,2.2,4.8,4.8,4.8c2.7,0,4.8-2.2,4.8-4.8
			C16.8,5.5,14.7,3.3,12,3.3z M12,5.2c1.6,0,2.9,1.3,2.9,2.9S13.6,11,12,11S9.1,9.7,9.1,8.1S10.4,5.2,12,5.2z"/>
	</g>
	<circle class="st2" cx="12.2" cy="8" r="6.3"/>
	<ellipse class="st3" cx="12.2" cy="11" rx="4.1" ry="1"/>
	<ellipse class="st3" cx="12.2" cy="10" rx="4.1" ry="1"/>
	<ellipse class="st3" cx="12.2" cy="9" rx="4.1" ry="1"/>
	<ellipse class="st3" cx="12.2" cy="8" rx="4.1" ry="1"/>
	<ellipse class="st3" cx="12.2" cy="7" rx="4.1" ry="1"/>
	<ellipse class="st4" cx="10.5" cy="6.9" rx="0.3" ry="0.2"/>
	<ellipse class="st4" cx="11.7" cy="7.2" rx="0.6" ry="0.3"/>
	<ellipse class="st4" cx="12.8" cy="7.1" rx="0.2" ry="0.1"/>
	<path class="st5" d="M11.4,5.2c0,0,0-0.1-0.2-0.4c0,0-0.2-0.5,0.2-0.9c0,0,0.2-0.1,0.3-0.9"/>
	<path class="st5" d="M12.2,5.2c0,0,0-0.1-0.2-0.4c0,0-0.2-0.5,0.2-0.9c0,0,0.2-0.1,0.3-0.9"/>
	<path class="st5" d="M13.2,5.2c0,0,0-0.1-0.2-0.4c0,0-0.2-0.5,0.2-0.9c0,0,0.2-0.1,0.3-0.9"/>
</g>
</svg>
