<?xml version="1.0" encoding="utf-8"?>
<!-- Generator: Adobe Illustrator 25.0.0, SVG Export Plug-In . SVG Version: 6.00 Build 0)  -->
<svg version="1.1" id="Capa_1" xmlns="http://www.w3.org/2000/svg" xmlns:xlink="http://www.w3.org/1999/xlink" x="0px" y="0px"
	 viewBox="0 0 24 24" style="enable-background:new 0 0 24 24;" xml:space="preserve">
<style type="text/css">
	.st0{fill:#003DA6;}
	.st1{fill:#BE6017;}
	.st2{fill:#E21580;}
	.st3{fill:none;stroke:#FFFFFF;stroke-width:0.32;stroke-linecap:round;stroke-linejoin:round;stroke-miterlimit:10;}
</style>
<g>
	<g>
		<path id="svg_2_4_" class="st0" d="M12,0.4c-4.3,0-7.7,3.4-7.7,7.7c0,1.4,0.4,2.6,1,3.8c0.1,0.2,0.2,0.4,0.3,0.5L12,23.6l6.4-11.1
			c0.1-0.1,0.2-0.3,0.3-0.5l0.1-0.1c0.6-1.1,1-2.4,1-3.8C19.7,3.9,16.3,0.4,12,0.4z M12,4.3c2.1,0,3.9,1.7,3.9,3.9
			c0,2.1-1.7,3.9-3.9,3.9c-2.1,0-3.9-1.7-3.9-3.9C8.1,6,9.9,4.3,12,4.3z"/>
		<path id="svg_3_4_" class="st1" d="M12,3.3c-2.7,0-4.8,2.2-4.8,4.8c0,2.7,2.2,4.8,4.8,4.8c2.7,0,4.8-2.2,4.8-4.8
			C16.8,5.5,14.7,3.3,12,3.3z M12,5.3c1.6,0,2.9,1.3,2.9,2.9S13.6,11,12,11S9.1,9.7,9.1,8.1S10.4,5.3,12,5.3z"/>
	</g>
	<circle class="st2" cx="12" cy="7.9" r="6.3"/>
	<g>
		<rect x="8.5" y="6.5" class="st3" width="6.9" height="4.8"/>
		<rect x="9.1" y="5.6" class="st3" width="5.7" height="0.9"/>
		<line class="st3" x1="12" y1="3.2" x2="12" y2="5.6"/>
		<polyline class="st3" points="12,3.5 12.8,3.5 12.8,3.8 12.8,4.4 12,4.4 		"/>
		<polygon class="st3" points="12.8,3.8 13.7,3.8 13.4,4.3 13.7,4.7 12.8,4.7 		"/>
		<line class="st3" x1="7.9" y1="11.4" x2="16.1" y2="11.4"/>
		<rect x="11.5" y="8" class="st3" width="0.9" height="3.3"/>
		<rect x="9.4" y="8" class="st3" width="0.9" height="3.3"/>
		<rect x="13.7" y="8" class="st3" width="0.9" height="3.3"/>
	</g>
</g>
</svg>
