<?xml version="1.0" encoding="utf-8"?>
<!-- Generator: Adobe Illustrator 25.0.0, SVG Export Plug-In . SVG Version: 6.00 Build 0)  -->
<svg version="1.1" id="Capa_1" xmlns="http://www.w3.org/2000/svg" xmlns:xlink="http://www.w3.org/1999/xlink" x="0px" y="0px"
	 viewBox="0 0 24 24" style="enable-background:new 0 0 24 24;" xml:space="preserve">
<style type="text/css">
	.st0{fill:#003DA6;}
	.st1{fill:#BE6017;}
	.st2{fill:#FF5100;}
	.st3{fill:#FFFFFF;}
</style>
<g>
	<g>
		<path id="svg_2" class="st0" d="M12,0.3c-4.3,0-7.8,3.5-7.8,7.8c0,1.4,0.4,2.7,1,3.8c0.1,0.2,0.2,0.4,0.3,0.5L12,23.7l6.4-11.2
			c0.1-0.1,0.2-0.3,0.3-0.5l0.1-0.1c0.6-1.1,1-2.4,1-3.8C19.8,3.8,16.3,0.3,12,0.3z M12,4.2c2.1,0,3.9,1.7,3.9,3.9
			c0,2.1-1.7,3.9-3.9,3.9c-2.1,0-3.9-1.7-3.9-3.9C8.1,6,9.9,4.2,12,4.2z"/>
		<path id="svg_3" class="st1" d="M12,3.3c-2.7,0-4.9,2.2-4.9,4.9c0,2.7,2.2,4.9,4.9,4.9c2.7,0,4.9-2.2,4.9-4.9
			C16.9,5.4,14.7,3.3,12,3.3z M12,5.2c1.6,0,2.9,1.3,2.9,2.9S13.6,11,12,11S9.1,9.7,9.1,8.1S10.4,5.2,12,5.2z"/>
	</g>
	<circle class="st2" cx="12" cy="7.9" r="6.3"/>
	<g>
		<path class="st3" d="M13.3,7.5C13.3,7.5,13.3,7.5,13.3,7.5c0.1,0,0.2,0,0.2-0.1c0-0.1,0.2-0.2,0.3-0.2C14,7.4,14.4,7.2,14.4,7
			c0-0.1,0-0.2-0.1-0.2c-0.1,0-0.2,0-0.2,0.1C14.1,7,14,7.1,13.9,7c-0.3-0.1-0.6,0.1-0.7,0.3C13.2,7.4,13.2,7.5,13.3,7.5L13.3,7.5z
			 M13.3,7.5"/>
		<path class="st3" d="M13.6,6.5C13.6,6.5,13.6,6.5,13.6,6.5c0.1,0,0.2,0,0.2-0.1c0-0.1,0.1-0.1,0.1-0.1c0.1,0,0.1,0,0.2,0
			c0.3,0.1,0.6-0.1,0.7-0.3c0-0.1,0-0.2-0.1-0.2c-0.1,0-0.2,0-0.2,0.1c0,0.1-0.2,0.2-0.3,0.2c-0.1,0-0.3,0-0.4,0
			c-0.1,0.1-0.2,0.2-0.3,0.3C13.5,6.4,13.5,6.5,13.6,6.5L13.6,6.5z M13.6,6.5"/>
		<g>
			<path class="st3" d="M13.9,5.6C14,5.6,14,5.6,13.9,5.6c0.1,0,0.2,0,0.2-0.1c0-0.1,0.1-0.1,0.2-0.1c0.1,0,0.2,0,0.4,0
				c0.1-0.1,0.2-0.2,0.2-0.3c0-0.1,0-0.2-0.1-0.2c-0.1,0-0.2,0-0.2,0.1c0,0,0,0.1-0.1,0.1c0,0-0.1,0-0.1,0c-0.2-0.1-0.5,0-0.6,0.3
				C13.8,5.4,13.9,5.5,13.9,5.6L13.9,5.6z M13.9,5.6"/>
			<path class="st3" d="M15,7.5C14.9,7.5,14.9,7.5,15,7.5c0.2-0.9,0.4-1.8,0.4-2.7c0-0.3-0.1-0.6-0.4-0.8c-0.1-0.1-0.3-0.1-0.6,0
				c-0.4,0.2-0.7,0.9-1,1.4c0,0,0,0.1,0,0.1c-0.1-0.2-0.2-0.5-0.4-0.6c-0.1-0.3-0.3-0.5-0.5-0.5c0,0,0,0,0,0C12.3,4.2,12.1,4,12,4
				c-0.1,0-0.2,0-0.3,0.1C11.6,4,11.5,4,11.4,4c-0.2,0-0.5,0.2-0.5,0.4c-0.3,0.1-0.5,0.3-0.5,0.6c-0.3,0.1-0.5,0.4-0.5,0.7
				c0,0.1,0,0.2,0,0.3C9.9,6.1,9.8,6.2,9.8,6.3c0,0.1,0,0.2,0,0.2C9.7,6.4,9.5,6.2,9.3,6.3c-0.1,0-0.1,0.1-0.1,0.1
				c0,0.1,0.1,0.1,0.1,0.1c0,0,0,0,0,0c0.1,0,0.3,0.1,0.3,0.2C9.4,6.8,9.2,6.9,9,7.1C9,7.3,9,7.5,9,7.7c0,0,0,0.1,0,0.1l0.2,3.4
				c0,0.4,0.4,0.8,0.8,0.8h4c0.4,0,0.8-0.3,0.8-0.8l0.2-3.5c0,0,0,0,0,0C15.1,7.6,15,7.6,15,7.5L15,7.5z M13.5,5.9
				c0.1-0.1,0.1-0.2,0.2-0.4c0.2-0.5,0.5-1.1,0.8-1.2c0.1-0.1,0.2-0.1,0.3,0c0.2,0.1,0.3,0.4,0.3,0.5c0,0.8-0.2,1.7-0.5,2.6
				c0,0,0,0.1-0.1,0.2l-0.2,0.1c0,0,0,0,0,0c-0.1,0-0.1,0.1-0.2,0.1c-0.1,0-0.2,0-0.2-0.1l-0.1-0.1c-0.1-0.1-0.2-0.1-0.4-0.1
				c0,0,0,0,0,0c-0.1,0-0.3,0-0.4,0.1l-0.1,0.1c-0.1,0-0.1,0-0.2,0.1c0,0,0,0,0,0c0-0.1,0.1-0.3,0.1-0.4c0,0,0-0.1,0.1-0.1
				C12.9,7.1,13,7,13,6.9c0,0,0-0.1,0.1-0.1C13.2,6.5,13.3,6.2,13.5,5.9L13.5,5.9z M11.7,6.2C11.7,6.2,11.7,6.2,11.7,6.2
				C11.7,6.2,11.7,6.2,11.7,6.2c0.1-0.1,0.1-0.1,0.1-0.1c0-0.1,0-0.1,0-0.2l0.6-0.1c0,0,0,0,0,0.1c0,0.1,0.1,0.1,0.1,0.2
				c0,0,0,0,0.1,0c0,0,0,0,0.1,0c0,0,0,0,0,0c0,0,0,0,0,0c0,0,0,0,0,0c0,0,0,0,0,0c0,0,0,0,0,0c0,0,0,0,0,0c0,0,0,0.1,0.1,0.1
				c-0.1,0.1-0.1,0.3-0.2,0.4c0,0,0,0,0,0.1c-0.2,0-0.3,0.1-0.5,0.2c-0.2,0.2-0.4,0.2-0.7,0.2l-0.1-0.4C11.4,6.5,11.5,6.4,11.7,6.2
				L11.7,6.2z M12.4,5.4C12.4,5.4,12.4,5.4,12.4,5.4C12.4,5.4,12.4,5.4,12.4,5.4C12.4,5.4,12.4,5.4,12.4,5.4c0.1,0.1,0,0.1,0,0.1
				l-0.8,0.2c0,0-0.1,0-0.1,0c0,0,0-0.1,0-0.1L12,5.4L12.4,5.4z M11.9,7.6C11.9,7.6,11.9,7.6,11.9,7.6c-0.1,0-0.2,0-0.3,0.1l0-0.1
				c0,0,0.1,0,0.1,0c0.2,0,0.4-0.1,0.7-0.2c0.1-0.1,0.1-0.1,0.2-0.1c0,0,0,0.1,0,0.1c0,0,0,0.1,0,0.1c0,0.1-0.1,0.3-0.1,0.4
				l-0.1-0.1C12.2,7.6,12.1,7.6,11.9,7.6C11.9,7.6,11.9,7.6,11.9,7.6C11.9,7.6,11.9,7.6,11.9,7.6L11.9,7.6z M10.2,6.1L10.2,6.1
				l0-0.2c0-0.1-0.1-0.1-0.1-0.2c0-0.2,0.2-0.4,0.4-0.4l0.2,0l0-0.2c0,0,0-0.1,0-0.1c0-0.2,0.1-0.3,0.3-0.4l0.1,0V4.5
				c0-0.1,0.1-0.2,0.2-0.2c0.1,0,0.1,0,0.2,0.1l0.1,0.1l0.1-0.1c0,0,0.1-0.1,0.2-0.1c0.1,0,0.1,0.1,0.2,0.1c0,0,0,0.1,0,0.1l0,0.2
				h0.2c0.2,0,0.4,0.2,0.4,0.4l0,0.1l0.1,0c0.2,0.1,0.4,0.3,0.4,0.5c0,0.1,0,0.2-0.1,0.3c-0.1-0.1-0.2-0.1-0.3-0.2c0,0,0,0-0.1,0
				c0,0,0,0,0,0c0,0,0,0,0-0.1c0.1-0.1,0.1-0.2,0.1-0.3l0-0.1c0-0.1-0.1-0.1-0.1-0.2c-0.1,0-0.1-0.1-0.2,0l0,0c0,0,0,0,0,0l-0.4,0.1
				l-0.4,0.1c-0.1,0-0.1,0.1-0.2,0.1c0,0.1-0.1,0.1,0,0.2l0,0c0,0,0,0,0,0l0,0c0,0.1,0.1,0.2,0.2,0.2c0,0,0,0,0,0c0,0,0,0,0,0
				c0,0,0,0,0,0.1c0,0,0,0,0,0.1c0,0,0,0,0,0c0,0,0,0,0,0c0,0,0,0,0,0c0,0,0,0,0,0.1c0,0,0,0,0,0c0,0,0,0,0,0.1c0,0,0,0,0,0
				c0,0,0,0.1,0,0.1c0,0,0,0,0,0c0,0,0,0.1,0,0.1c0,0,0,0,0,0c0,0,0,0,0,0.1l0,0c0,0,0,0,0,0c0,0,0-0.1-0.1-0.1c0,0,0,0,0,0
				c0,0,0,0-0.1-0.1c0,0,0,0,0,0c0,0-0.1,0-0.1-0.1c0,0,0,0,0,0c0,0,0,0-0.1,0c0,0,0,0,0,0c0,0,0,0-0.1,0c0,0,0,0,0,0c0,0,0,0-0.1,0
				c0,0,0,0,0,0c0,0,0,0,0,0c0,0,0,0,0,0c0,0,0,0,0,0c0,0,0,0,0,0c0,0,0,0-0.1,0c0,0,0,0,0,0c0,0-0.1,0-0.1,0c0,0,0,0,0,0
				c-0.1,0-0.1,0.1-0.2,0.1c0,0,0-0.1,0-0.1C10.1,6.2,10.1,6.1,10.2,6.1L10.2,6.1z M9.3,7.3C9.3,7.2,9.5,7.1,9.7,7
				c0.1,0,0.2-0.1,0.3-0.2c0,0,0.1-0.1,0.1-0.1c0.1-0.1,0.2-0.1,0.3-0.2c0,0,0,0,0,0c0,0,0.1,0,0.1,0c0,0,0,0,0,0c0,0,0,0,0,0
				c0,0,0,0,0,0c0,0,0,0,0,0c0,0,0,0,0,0c0,0,0,0,0,0c0,0,0,0,0,0c0,0,0,0,0,0c0,0,0,0,0,0c0,0,0,0,0,0c0,0,0,0,0,0.1c0,0,0,0,0,0
				c0,0,0,0,0,0.1c0,0,0,0,0,0c0,0,0,0.1,0.1,0.1c0.1,0.2,0.1,0.5,0.1,0.7c0,0,0,0,0,0c-0.1,0-0.1,0-0.2-0.1l-0.1-0.1
				c-0.1-0.1-0.2-0.1-0.4-0.1c0,0,0,0,0,0c-0.1,0-0.3,0-0.4,0.1l0,0C10,7.7,9.9,7.8,9.8,7.8c-0.1,0-0.2,0-0.3-0.1L9.3,7.6h0
				c0,0-0.1,0-0.1,0C9.2,7.4,9.3,7.3,9.3,7.3L9.3,7.3z M14.5,11.2c0,0.3-0.2,0.5-0.5,0.5h-4c-0.3,0-0.5-0.2-0.5-0.5L9.3,7.9l0.1,0.1
				C9.5,8,9.7,8.1,9.8,8.1c0.2,0,0.3,0,0.4-0.1l0,0c0.1,0,0.1-0.1,0.2-0.1c0.1,0,0.2,0,0.2,0.1L10.9,8C11,8,11.1,8.1,11.3,8.1
				c0,0,0,0,0,0c0,0,0,0,0,0c0.1,0,0.2,0,0.3-0.1c0,0,0,0,0,0l0.1-0.1c0.1,0,0.1-0.1,0.2-0.1c0.1,0,0.2,0,0.2,0.1L12.3,8
				c0.1,0.1,0.2,0.1,0.3,0.1c0,0,0,0,0,0c0,0,0.1,0,0.1,0c0,0,0,0,0.1,0c0,0,0,0,0,0C12.9,8,13,8,13,8l0.1-0.1
				c0.1,0,0.1-0.1,0.2-0.1c0.1,0,0.2,0,0.2,0.1L13.7,8c0.1,0.1,0.2,0.1,0.4,0.1c0,0,0,0,0,0c0.1,0,0.3,0,0.4-0.1l0.3-0.1
				c0,0,0,0,0,0l0,0L14.5,11.2z M14.5,11.2"/>
		</g>
		<path class="st3" d="M9.8,10h1C10.9,10,11,10,11,9.9c0-0.1-0.1-0.1-0.1-0.1h-1c-0.1,0-0.1,0.1-0.1,0.1C9.7,10,9.7,10,9.8,10
			L9.8,10z M9.8,10"/>
		<path class="st3" d="M9.8,10.6h1.3c0.1,0,0.1-0.1,0.1-0.1c0-0.1-0.1-0.1-0.1-0.1H9.8c-0.1,0-0.1,0.1-0.1,0.1
			C9.7,10.5,9.7,10.6,9.8,10.6L9.8,10.6z M9.8,10.6"/>
		<path class="st3" d="M11.4,10.9H9.8c-0.1,0-0.1,0.1-0.1,0.1c0,0.1,0.1,0.1,0.1,0.1h1.6c0.1,0,0.1-0.1,0.1-0.1
			C11.5,11,11.5,10.9,11.4,10.9L11.4,10.9z M11.4,10.9"/>
		<path class="st3" d="M12.2,10.9h-0.3c-0.1,0-0.1,0.1-0.1,0.1c0,0.1,0.1,0.1,0.1,0.1h0.3c0.1,0,0.1-0.1,0.1-0.1
			C12.4,11,12.3,10.9,12.2,10.9L12.2,10.9z M12.2,10.9"/>
	</g>
</g>
</svg>
