<?xml version="1.0" encoding="utf-8"?>
<!-- Generator: Adobe Illustrator 25.0.0, SVG Export Plug-In . SVG Version: 6.00 Build 0)  -->
<svg version="1.1" id="Capa_1" xmlns="http://www.w3.org/2000/svg" xmlns:xlink="http://www.w3.org/1999/xlink" x="0px" y="0px"
	 viewBox="0 0 24 24" style="enable-background:new 0 0 24 24;" xml:space="preserve">
<style type="text/css">
	.st0{fill:#003DA6;}
	.st1{fill:#BE6017;}
	.st2{fill:#5AB14B;}
	.st3{fill:#4DAD39;}
	.st4{fill:#4EAD3D;}
	.st5{fill:#5AB147;}
	.st6{fill:#5CB147;}
	.st7{fill:#5CB146;}
	.st8{fill:#5DB148;}
	.st9{fill:#48AC36;}
	.st10{fill:#E42629;}
	.st11{fill:#FFDD03;}
	.st12{fill:#4BAE52;}
	.st13{fill:#FFFFFF;stroke:#FFFFFF;stroke-width:0.25;stroke-miterlimit:10;}
	.st14{fill:#E20613;}
</style>
<g>
	<g>
		<path id="svg_2_12_" class="st0" d="M12,0.4c-4.3,0-7.8,3.5-7.8,7.8c0,1.4,0.4,2.7,1,3.8c0.1,0.2,0.2,0.4,0.3,0.5L12,23.6
			l6.4-11.2c0.1-0.1,0.2-0.3,0.3-0.5l0.1-0.1c0.6-1.1,1-2.4,1-3.8C19.8,3.8,16.3,0.4,12,0.4z M12,4.2c2.1,0,3.9,1.7,3.9,3.9
			c0,2.1-1.7,3.9-3.9,3.9c-2.1,0-3.9-1.7-3.9-3.9C8.1,6,9.9,4.2,12,4.2z"/>
		<path id="svg_3_12_" class="st1" d="M12,3.3c-2.7,0-4.8,2.2-4.8,4.8c0,2.7,2.2,4.8,4.8,4.8c2.7,0,4.8-2.2,4.8-4.8
			C16.8,5.4,14.7,3.3,12,3.3z M12,5.2c1.6,0,2.9,1.3,2.9,2.9S13.6,11,12,11S9.1,9.7,9.1,8.1S10.4,5.2,12,5.2z"/>
	</g>
	<g>
		<path class="st2" d="M7.2,3.8c0,0,0.1-0.1,0.1-0.1c0.2-0.1,0.3-0.3,0.4-0.4c0,0,0.1-0.1,0.1-0.1c0.1,0,0.1,0,0.1-0.1
			c0.5-0.5,1.1-0.8,1.8-1C9.9,2,10,2,10.2,1.9c0,0,0,0,0,0c0,0,0,0,0,0c0.3-0.1,0.6-0.2,0.9-0.2c0,0,0,0,0,0c0,0,0,0,0,0
			c0.2,0,0.4-0.1,0.6-0.1c0.2,0,0.5,0,0.7,0c0.2,0,0.4,0,0.6,0.1c0,0,0,0,0,0c0,0,0,0,0,0c0.3,0,0.6,0.1,0.9,0.2c0,0-0.1,0-0.1,0
			c0.1,0,0.3,0.1,0.5,0.1c0.5,0.2,1,0.4,1.4,0.7C15.8,2.9,15.9,3,16,3.1c0,0.1,0.1,0.1,0.1,0.1c0,0,0.1,0,0.1,0.1
			c0.1,0.2,0.3,0.3,0.4,0.4c0,0,0.1,0.1,0.1,0.1c0,0.1,0.1,0.1,0.1,0.1c0.6,0.7,1,1.5,1.2,2.4c0.5,2,0.1,3.8-1.1,5.5
			c0,0-0.1,0.1-0.1,0.1c-0.1,0-0.1,0.1-0.1,0.2c0,0,0,0.1-0.1,0.1c-0.2,0.1-0.3,0.3-0.4,0.4c0,0-0.1,0.1-0.1,0.1
			c-0.1,0-0.1,0.1-0.2,0.1c-0.5,0.4-1.1,0.8-1.7,1c-0.1,0-0.3,0.1-0.4,0.1c0,0,0,0,0,0c0,0,0,0,0,0c-0.5,0.2-1,0.2-1.5,0.3
			c-0.2,0-0.5,0-0.7,0c-0.5,0-1-0.1-1.5-0.3c-0.1-0.1-0.3-0.1-0.4-0.1c-0.6-0.2-1.2-0.6-1.7-1c0-0.1-0.1-0.1-0.2-0.1
			c0,0-0.1-0.1-0.1-0.1c-0.1-0.2-0.3-0.3-0.4-0.4c0,0-0.1-0.1-0.1-0.1c0-0.1-0.1-0.1-0.1-0.2c-0.6-0.7-1-1.5-1.2-2.4
			C5.8,9.1,5.7,8.7,5.7,8.3c0-0.2,0-0.5,0-0.7C5.7,6.7,6,5.8,6.4,5c0.2-0.4,0.4-0.8,0.7-1.1C7.2,3.9,7.2,3.9,7.2,3.8z"/>
		<path class="st3" d="M11.6,14.3c0.2-0.1,0.5-0.1,0.7,0C12.1,14.3,11.9,14.3,11.6,14.3z"/>
		<path class="st3" d="M12.4,1.6c-0.2,0.1-0.5,0.1-0.7,0C11.9,1.6,12.1,1.6,12.4,1.6z"/>
		<path class="st4" d="M7.8,3.3C7.7,3.5,7.5,3.6,7.3,3.7C7.5,3.5,7.6,3.4,7.8,3.3z"/>
		<path class="st4" d="M16.7,3.7c-0.2-0.1-0.3-0.2-0.4-0.4C16.4,3.4,16.6,3.5,16.7,3.7z"/>
		<path class="st4" d="M7.3,12.2c0.2,0.1,0.3,0.2,0.4,0.4C7.6,12.5,7.5,12.3,7.3,12.2z"/>
		<path class="st4" d="M16.3,12.6c0.1-0.2,0.2-0.3,0.4-0.4C16.6,12.3,16.4,12.5,16.3,12.6z"/>
		<path class="st5" d="M9.8,13.9c0.1,0,0.4,0.1,0.5,0.1c0,0,0,0-0.1,0C10,14,9.9,13.9,9.8,13.9z"/>
		<path class="st3" d="M5.7,7.6c0.1,0.2,0.1,0.5,0,0.7C5.7,8.1,5.7,7.8,5.7,7.6z"/>
		<path class="st5" d="M10.2,1.9C10.2,1.9,10.2,1.9,10.2,1.9C10.1,2,9.9,2.1,9.8,2C9.9,2,10,1.9,10.2,1.9z"/>
		<path class="st5" d="M13.8,14C13.8,14,13.8,14,13.8,14c0.1-0.1,0.2-0.2,0.4-0.1C14.1,13.9,14,14,13.8,14z"/>
		<path class="st5" d="M14.2,2c-0.2,0-0.3-0.1-0.4-0.1c0,0,0,0,0.1,0C14,1.9,14.1,2,14.2,2z"/>
		<path class="st6" d="M7.1,11.9c0.1,0,0.2,0.1,0.1,0.2C7.2,12,7.1,12,7.1,11.9z"/>
		<path class="st7" d="M7.9,12.7c0.1,0,0.1,0,0.2,0.1C8,12.8,7.9,12.8,7.9,12.7z"/>
		<path class="st6" d="M16.8,12.1c0-0.1,0-0.2,0.1-0.2C16.9,12,16.8,12,16.8,12.1z"/>
		<path class="st7" d="M16,12.9c0-0.1,0.1-0.2,0.2-0.1C16.1,12.8,16.1,12.8,16,12.9z"/>
		<path class="st8" d="M7.2,3.8c0,0.1,0,0.1-0.1,0.1C7.2,3.9,7.2,3.8,7.2,3.8z"/>
		<path class="st8" d="M8,3.1c0,0.1,0,0.1-0.1,0.1C7.9,3.1,7.9,3.1,8,3.1z"/>
		<path class="st8" d="M16.1,3.2c-0.1,0-0.1,0-0.1-0.1C16.1,3.1,16.1,3.1,16.1,3.2z"/>
		<path class="st8" d="M16.9,3.9c-0.1,0-0.1,0-0.1-0.1C16.8,3.9,16.9,3.9,16.9,3.9z"/>
		<path class="st9" d="M13,1.7c0,0-0.1,0-0.1,0C12.9,1.7,12.9,1.7,13,1.7C13,1.7,13,1.7,13,1.7z"/>
		<path class="st9" d="M11.1,1.7C11.1,1.7,11.1,1.7,11.1,1.7C11.1,1.7,11.1,1.7,11.1,1.7C11,1.7,11.1,1.7,11.1,1.7z"/>
		<path class="st10" d="M14.6,6.3c-0.2-0.1-0.3-0.3-0.5-0.4c-0.3-0.2-0.5-0.3-0.8,0c-0.3,0.3-0.6,0.6-0.9,0.9
			c-1.3,1.5-2.6,3.1-3.9,4.6c0,0-0.1,0.1-0.1,0.1c-0.1,0.1-0.2,0.1-0.3,0C8,11.3,7.9,11.2,7.9,11c0-0.7,0-1.4,0-2.2
			c0-0.4,0.1-0.8,0.3-1.2C8.7,6.8,9.4,6,10,5.2c0.4-0.4,0.7-0.9,1.1-1.3c0.1-0.1,0.1-0.1,0.2-0.2c0.4-0.4,0.8-0.3,1.2,0.1
			c0.6,0.7,1.1,1.3,1.7,2C14.3,6,14.4,6.1,14.6,6.3C14.6,6.3,14.6,6.3,14.6,6.3z"/>
		<path class="st11" d="M15.7,10c0,0.4,0,0.8,0,1.2c0,0.1,0,0.2,0,0.2c0,0.3-0.2,0.3-0.4,0.2c0,0-0.1-0.1-0.1-0.1
			c-1.1-1.2-2.1-2.5-3.2-3.7c-0.1-0.1-0.1-0.1,0-0.2c0.3-0.4,0.7-0.8,1-1.2c0.2-0.2,0.4-0.4,0.6-0.4c0.1,0,0.3,0,0.4,0.1
			c0.2,0.2,0.4,0.3,0.6,0.6C15,7,15.3,7.5,15.6,8c0.1,0.3,0.2,0.6,0.2,0.9C15.7,9.3,15.8,9.6,15.7,10C15.7,10,15.7,10,15.7,10z"/>
		<ellipse class="st12" cx="15.8" cy="9.2" rx="0" ry="0.6"/>
	</g>
	<g>
		<path class="st13" d="M10.6,12l-0.7,0.6c0.1,0.1,0.3,0.1,0.4,0c0.1-0.1,0.1-0.2,0.2-0.3l0.2,0c0,0.2-0.1,0.3-0.2,0.4
			c-0.3,0.2-0.6,0.2-0.8,0c-0.2-0.3-0.2-0.6,0.1-0.8C10,11.7,10.3,11.7,10.6,12C10.5,12,10.6,12,10.6,12z M9.8,12.4l0.5-0.4
			c-0.1-0.1-0.3-0.1-0.4,0C9.7,12.1,9.7,12.3,9.8,12.4z"/>
		<path class="st13" d="M11.6,11.9l-0.4-0.2l0,0.5l-0.2,0.2l0.1-0.7l-0.6-0.2l0.2-0.2l0.4,0.2l0-0.5l0.2-0.1l-0.1,0.7l0.7,0.2
			L11.6,11.9z"/>
		<path class="st13" d="M12.8,10.7c0.1,0.3,0,0.6-0.3,0.7c-0.1,0.1-0.3,0.1-0.4,0l0.2,0.5L12.2,12l-0.6-1.4l0.2-0.1l0.1,0.1
			c0-0.1,0.1-0.2,0.3-0.3C12.4,10.3,12.7,10.4,12.8,10.7z M12.6,10.8c-0.1-0.2-0.3-0.3-0.4-0.2c-0.2,0.1-0.2,0.3-0.2,0.5
			c0.1,0.2,0.3,0.3,0.4,0.2C12.6,11.2,12.7,11,12.6,10.8z"/>
		<path class="st13" d="M13.6,9.9l0.1,0.2c0,0,0,0-0.1,0c-0.2,0.1-0.3,0.2-0.2,0.4l0.1,0.5l-0.2,0.1L13,10.1l0.2-0.1l0,0.2
			C13.3,10,13.4,9.9,13.6,9.9z"/>
		<path class="st13" d="M15,10.3l-0.9,0.1c0.1,0.2,0.2,0.2,0.4,0.2c0.1,0,0.2-0.1,0.3-0.2l0.2,0.1c-0.1,0.1-0.2,0.2-0.4,0.2
			c-0.4,0.1-0.6-0.1-0.7-0.5c0-0.3,0.2-0.6,0.5-0.6C14.7,9.7,15,9.9,15,10.3C15,10.3,15,10.3,15,10.3z M14.1,10.3l0.6-0.1
			c0-0.2-0.2-0.2-0.3-0.2C14.2,10,14.1,10.1,14.1,10.3z"/>
		<path class="st13" d="M15.2,10.7l0.1-0.2c0.1,0.1,0.2,0.1,0.4,0.1c0.2,0,0.2,0,0.2-0.1c0-0.2-0.7,0-0.7-0.5c0-0.2,0.2-0.3,0.5-0.3
			c0.1,0,0.3,0,0.4,0.1L16,10c-0.1-0.1-0.2-0.1-0.3-0.1c-0.2,0-0.2,0-0.2,0.1c0,0.2,0.7,0,0.7,0.5c0,0.2-0.2,0.3-0.5,0.3
			C15.4,10.8,15.3,10.7,15.2,10.7z"/>
		<path class="st13" d="M16.2,10.7l0.1-0.2c0.1,0.1,0.2,0.1,0.4,0.2c0.2,0,0.2,0,0.2-0.1c0-0.2-0.7-0.1-0.6-0.5
			c0-0.2,0.2-0.3,0.5-0.3c0.1,0,0.3,0.1,0.4,0.2l-0.1,0.2C17,10,16.9,10,16.8,10c-0.2,0-0.2,0-0.2,0.1c0,0.2,0.7,0.1,0.6,0.6
			c0,0.2-0.2,0.3-0.5,0.3C16.5,10.8,16.3,10.8,16.2,10.7z"/>
	</g>
	<g>
		<path class="st14" d="M10.6,12l-0.7,0.6c0.1,0.1,0.3,0.1,0.4,0c0.1-0.1,0.1-0.2,0.2-0.3l0.2,0c0,0.2-0.1,0.3-0.2,0.4
			c-0.3,0.2-0.6,0.2-0.8,0c-0.2-0.3-0.2-0.6,0.1-0.8C10,11.7,10.3,11.7,10.6,12C10.5,12,10.6,12,10.6,12z M9.8,12.4l0.5-0.4
			c-0.1-0.1-0.3-0.1-0.4,0C9.7,12.1,9.7,12.3,9.8,12.4z"/>
		<path class="st14" d="M11.6,11.9l-0.4-0.2l0,0.5l-0.2,0.2l0.1-0.7l-0.6-0.2l0.2-0.2l0.4,0.2l0-0.5l0.2-0.1l-0.1,0.7l0.7,0.2
			L11.6,11.9z"/>
		<path class="st14" d="M12.8,10.7c0.1,0.3,0,0.6-0.3,0.7c-0.1,0.1-0.3,0.1-0.4,0l0.2,0.5L12.2,12l-0.6-1.4l0.2-0.1l0.1,0.1
			c0-0.1,0.1-0.2,0.3-0.3C12.4,10.3,12.7,10.4,12.8,10.7z M12.6,10.8c-0.1-0.2-0.3-0.3-0.4-0.2c-0.2,0.1-0.2,0.3-0.2,0.5
			c0.1,0.2,0.3,0.3,0.4,0.2C12.6,11.2,12.7,11,12.6,10.8z"/>
		<path class="st14" d="M13.6,9.9l0.1,0.2c0,0,0,0-0.1,0c-0.2,0.1-0.3,0.2-0.2,0.4l0.1,0.5l-0.2,0.1L13,10.1l0.2-0.1l0,0.2
			C13.3,10,13.4,9.9,13.6,9.9z"/>
		<path class="st14" d="M15,10.3l-0.9,0.1c0.1,0.2,0.2,0.2,0.4,0.2c0.1,0,0.2-0.1,0.3-0.2l0.2,0.1c-0.1,0.1-0.2,0.2-0.4,0.2
			c-0.4,0.1-0.6-0.1-0.7-0.5c0-0.3,0.2-0.6,0.5-0.6C14.7,9.7,15,9.9,15,10.3C15,10.3,15,10.3,15,10.3z M14.1,10.3l0.6-0.1
			c0-0.2-0.2-0.2-0.3-0.2C14.2,10,14.1,10.1,14.1,10.3z"/>
		<path class="st14" d="M15.2,10.7l0.1-0.2c0.1,0.1,0.2,0.1,0.4,0.1c0.2,0,0.2,0,0.2-0.1c0-0.2-0.7,0-0.7-0.5c0-0.2,0.2-0.3,0.5-0.3
			c0.1,0,0.3,0,0.4,0.1L16,10c-0.1-0.1-0.2-0.1-0.3-0.1c-0.2,0-0.2,0-0.2,0.1c0,0.2,0.7,0,0.7,0.5c0,0.2-0.2,0.3-0.5,0.3
			C15.4,10.8,15.3,10.7,15.2,10.7z"/>
		<path class="st14" d="M16.2,10.7l0.1-0.2c0.1,0.1,0.2,0.1,0.4,0.2c0.2,0,0.2,0,0.2-0.1c0-0.2-0.7-0.1-0.6-0.5
			c0-0.2,0.2-0.3,0.5-0.3c0.1,0,0.3,0.1,0.4,0.2l-0.1,0.2C17,10,16.9,10,16.8,10c-0.2,0-0.2,0-0.2,0.1c0,0.2,0.7,0.1,0.6,0.6
			c0,0.2-0.2,0.3-0.5,0.3C16.5,10.8,16.3,10.8,16.2,10.7z"/>
	</g>
</g>
</svg>
