<?xml version="1.0" encoding="utf-8"?>
<!-- Generator: Adobe Illustrator 25.0.0, SVG Export Plug-In . SVG Version: 6.00 Build 0)  -->
<svg version="1.1" id="Capa_1" xmlns="http://www.w3.org/2000/svg" xmlns:xlink="http://www.w3.org/1999/xlink" x="0px" y="0px"
	 viewBox="0 0 24 24" style="enable-background:new 0 0 24 24;" xml:space="preserve">
<style type="text/css">
	.st0{fill:#003DA6;}
	.st1{fill:#BE6017;}
	.st2{fill:#E42921;}
	.st3{fill:#FFFFFF;}
</style>
<g>
	<g>
		<path id="svg_2_13_" class="st0" d="M12,0.4c-4.3,0-7.8,3.5-7.8,7.8c0,1.4,0.4,2.7,1,3.8c0.1,0.2,0.2,0.4,0.3,0.5L12,23.6
			l6.4-11.2c0.1-0.1,0.2-0.3,0.3-0.5l0.1-0.1c0.6-1.1,1-2.4,1-3.8C19.8,3.8,16.3,0.4,12,0.4z M12,4.2c2.1,0,3.9,1.7,3.9,3.9
			c0,2.1-1.7,3.9-3.9,3.9c-2.1,0-3.9-1.7-3.9-3.9C8.1,6,9.9,4.2,12,4.2z"/>
		<path id="svg_3_13_" class="st1" d="M12,3.3c-2.7,0-4.8,2.2-4.8,4.8c0,2.7,2.2,4.8,4.8,4.8c2.7,0,4.8-2.2,4.8-4.8
			C16.8,5.4,14.7,3.3,12,3.3z M12,5.2c1.6,0,2.9,1.3,2.9,2.9S13.6,11,12,11S9.1,9.7,9.1,8.1S10.4,5.2,12,5.2z"/>
	</g>
	<circle class="st2" cx="12" cy="8" r="6.3"/>
	<g>
		<g>
			<path class="st3" d="M13.6,6.2c0,0.6-0.5,1-1.4,1h-1.8V3.5h1.7c0.9,0,1.3,0.4,1.3,1c0,0.4-0.2,0.7-0.5,0.8
				C13.3,5.4,13.6,5.7,13.6,6.2z M10.9,3.9v1.2H12c0.5,0,0.9-0.2,0.9-0.6c0-0.4-0.3-0.6-0.9-0.6H10.9z M13.1,6.2
				c0-0.4-0.3-0.6-0.9-0.6h-1.2v1.2h1.2C12.8,6.8,13.1,6.6,13.1,6.2z"/>
		</g>
		<g>
			<path class="st3" d="M11.8,10.7c0,0.6-0.5,1-1.4,1H8.6V7.9h1.7c0.9,0,1.3,0.4,1.3,1c0,0.4-0.2,0.7-0.5,0.8
				C11.6,9.9,11.8,10.2,11.8,10.7z M9.2,8.4v1.2h1.1c0.5,0,0.9-0.2,0.9-0.6s-0.3-0.6-0.9-0.6H9.2z M11.3,10.6c0-0.4-0.3-0.6-0.9-0.6
				H9.2v1.2h1.2C11,11.2,11.3,11.1,11.3,10.6z"/>
		</g>
		<g>
			<path class="st3" d="M15.7,10.7c0,0.6-0.5,1-1.4,1h-1.8V7.9h1.7c0.9,0,1.3,0.4,1.3,1c0,0.4-0.2,0.7-0.5,0.8
				C15.4,9.9,15.7,10.2,15.7,10.7z M13,8.4v1.2h1.1C14.7,9.6,15,9.4,15,9s-0.3-0.6-0.9-0.6H13z M15.2,10.6c0-0.4-0.3-0.6-0.9-0.6H13
				v1.2h1.2C14.9,11.2,15.2,11.1,15.2,10.6z"/>
		</g>
	</g>
</g>
</svg>
