<?xml version="1.0" encoding="utf-8"?>
<!-- Generator: Adobe Illustrator 25.0.0, SVG Export Plug-In . SVG Version: 6.00 Build 0)  -->
<svg version="1.1" id="Capa_1" xmlns="http://www.w3.org/2000/svg" xmlns:xlink="http://www.w3.org/1999/xlink" x="0px" y="0px"
	 viewBox="0 0 24 24" style="enable-background:new 0 0 24 24;" xml:space="preserve">
<style type="text/css">
	.st0{fill:#003DA6;}
	.st1{fill:#BE6017;}
	.st2{fill:#B17F49;}
	.st3{fill:none;stroke:#FFFFFF;stroke-width:0.6;stroke-linecap:round;stroke-linejoin:round;stroke-miterlimit:10;}
	.st4{fill:none;stroke:#FFFFFF;stroke-width:0.6;stroke-miterlimit:10;}
</style>
<g>
	<g>
		<path id="svg_2_5_" class="st0" d="M12,0.4c-4.3,0-7.7,3.4-7.7,7.7c0,1.4,0.4,2.6,1,3.8c0.1,0.2,0.2,0.4,0.3,0.5L12,23.6l6.4-11.1
			c0.1-0.1,0.2-0.3,0.3-0.5l0.1-0.1c0.6-1.1,1-2.4,1-3.8C19.7,3.9,16.3,0.4,12,0.4z M12,4.3c2.1,0,3.9,1.7,3.9,3.9
			c0,2.1-1.7,3.9-3.9,3.9c-2.1,0-3.9-1.7-3.9-3.9C8.1,6,9.9,4.3,12,4.3z"/>
		<path id="svg_3_5_" class="st1" d="M12,3.3c-2.7,0-4.8,2.2-4.8,4.8c0,2.7,2.2,4.8,4.8,4.8c2.7,0,4.8-2.2,4.8-4.8
			C16.8,5.5,14.7,3.3,12,3.3z M12,5.3c1.6,0,2.9,1.3,2.9,2.9S13.6,11,12,11S9.1,9.7,9.1,8.1S10.4,5.3,12,5.3z"/>
	</g>
	<circle class="st2" cx="12" cy="8" r="6.3"/>
	<g>
		<g>
			<path class="st3" d="M12,9.3v2c0,0.2-0.1,0.3-0.2,0.4c-0.1,0-0.2,0-0.3,0l-3.2-0.9c-0.3-0.1-0.5-0.4-0.5-0.7V8
				c0-0.1,0-0.2-0.1-0.2C7.6,7.5,7.5,7.2,7.5,6.9c0-0.6,0.4-0.9,0.9-1.1c0.4-0.1,1-0.1,1.6,0.1c1.4,0.4,2.5,1.5,2.5,2.5
				c0,0.3-0.1,0.5-0.3,0.7C12.1,9.1,12,9.2,12,9.3z"/>
			<line class="st3" x1="12.4" y1="7.9" x2="16.5" y2="6.4"/>
			<line class="st3" x1="12" y1="9.3" x2="16.1" y2="7.8"/>
			<path class="st3" d="M8.4,5.8l4-1.5c0.4-0.1,1-0.2,1.6,0c1.4,0.4,2.5,1.3,2.5,2.3c0,0.3-0.1,0.8-0.3,1c0,0.1-0.1,0.1-0.1,0.2v2
				c0,0.2-0.1,0.3-0.3,0.4c-1,0.4-4,1.4-4,1.4"/>
			<g>
				<g>
					<line class="st4" x1="9.2" y1="7.9" x2="9.2" y2="8.3"/>
					<line class="st4" x1="10.2" y1="8.9" x2="10.2" y2="9.3"/>
					<line class="st4" x1="11.2" y1="8.1" x2="11.2" y2="8.5"/>
					<line class="st4" x1="9.8" y1="6.7" x2="9.8" y2="7.1"/>
					<line class="st4" x1="8.5" y1="6.9" x2="8.5" y2="7.3"/>
				</g>
				<g>
					<line class="st4" x1="8.9" y1="9.7" x2="8.9" y2="9.3"/>
					<line class="st4" x1="11" y1="10.5" x2="11" y2="10.1"/>
				</g>
			</g>
		</g>
	</g>
</g>
</svg>
