<?xml version="1.0" encoding="utf-8"?>
<!-- Generator: Adobe Illustrator 25.0.0, SVG Export Plug-In . SVG Version: 6.00 Build 0)  -->
<svg version="1.1" id="Capa_1" xmlns="http://www.w3.org/2000/svg" xmlns:xlink="http://www.w3.org/1999/xlink" x="0px" y="0px"
	 viewBox="0 0 24 24" style="enable-background:new 0 0 24 24;" xml:space="preserve">
<style type="text/css">
	.st0{fill:#003DA6;}
	.st1{fill:#BE6017;}
	.st2{fill:#3F559D;}
	.st3{fill:#FFFFFF;}
</style>
<g>
	<g>
		<path id="svg_2_3_" class="st0" d="M12,0.4c-4.3,0-7.7,3.4-7.7,7.7c0,1.4,0.4,2.6,1,3.8c0.1,0.2,0.2,0.4,0.3,0.5L12,23.6l6.4-11.1
			c0.1-0.1,0.2-0.3,0.3-0.5l0.1-0.1c0.6-1.1,1-2.4,1-3.8C19.7,3.9,16.3,0.4,12,0.4z M12,4.3c2.1,0,3.9,1.7,3.9,3.9
			c0,2.1-1.7,3.9-3.9,3.9c-2.1,0-3.9-1.7-3.9-3.9C8.1,6,9.9,4.3,12,4.3z"/>
		<path id="svg_3_3_" class="st1" d="M12,3.3c-2.7,0-4.8,2.2-4.8,4.8c0,2.7,2.2,4.8,4.8,4.8c2.7,0,4.8-2.2,4.8-4.8
			C16.8,5.5,14.7,3.3,12,3.3z M12,5.3c1.6,0,2.9,1.3,2.9,2.9S13.6,11,12,11S9.1,9.7,9.1,8.1S10.4,5.3,12,5.3z"/>
	</g>
	<circle class="st2" cx="12" cy="7.9" r="6.3"/>
	<path class="st3" d="M15,8.7V7.4l0.5,0.4l0.3-0.3l-3.7-3.3V3.5h0.4V3.2h-0.4V2.8h-0.3v0.4h-0.5v0.3h0.5v0.8h0L8.2,7.5l0.3,0.3
		L9,7.4v1.3L7.7,9.8v1.7H9h0.4h2V9.5c0-0.3,0.3-0.6,0.6-0.6c0.3,0,0.6,0.3,0.6,0.6v2.1h2H15h1.3V9.8L15,8.7z M8.1,11.1V10L9,9.3
		l0,0.2v1.7H8.1z M14.6,11.1H13V9.5c0-0.5-0.4-1-1-1c-0.5,0-1,0.4-1,1v1.6H9.4l0-1.7V7L12,4.7L14.6,7V11.1z M15.9,11.1H15l0-1.8
		l0.9,0.8V11.1z"/>
</g>
</svg>
