<?xml version="1.0" encoding="utf-8"?>
<!-- Generator: Adobe Illustrator 25.0.0, SVG Export Plug-In . SVG Version: 6.00 Build 0)  -->
<svg version="1.1" id="Capa_1" xmlns="http://www.w3.org/2000/svg" xmlns:xlink="http://www.w3.org/1999/xlink" x="0px" y="0px"
	 viewBox="0 0 24 24" style="enable-background:new 0 0 24 24;" xml:space="preserve">
<style type="text/css">
	.st0{fill:#003DA6;}
	.st1{fill:#BE6017;}
	.st2{fill:#008D36;}
	.st3{fill:none;stroke:#FFFFFF;stroke-width:0.5;stroke-linecap:round;stroke-linejoin:round;stroke-miterlimit:10;}
	.st4{fill:none;stroke:#FFFFFF;stroke-width:0.25;stroke-linecap:round;stroke-linejoin:round;stroke-miterlimit:10;}
</style>
<g>
	<g>
		<path id="svg_2_9_" class="st0" d="M12,0.4c-4.3,0-7.7,3.5-7.7,7.7c0,1.4,0.4,2.7,1,3.8c0.1,0.2,0.2,0.4,0.3,0.5L12,23.6l6.4-11.1
			c0.1-0.1,0.2-0.3,0.3-0.5l0.1-0.1c0.6-1.1,1-2.4,1-3.8C19.7,3.9,16.3,0.4,12,0.4z M12,4.3c2.1,0,3.9,1.7,3.9,3.9
			c0,2.1-1.7,3.9-3.9,3.9c-2.1,0-3.9-1.7-3.9-3.9C8.1,6,9.9,4.3,12,4.3z"/>
		<path id="svg_3_9_" class="st1" d="M12,3.3c-2.7,0-4.8,2.2-4.8,4.8c0,2.7,2.2,4.8,4.8,4.8c2.7,0,4.8-2.2,4.8-4.8
			C16.8,5.5,14.7,3.3,12,3.3z M12,5.2c1.6,0,2.9,1.3,2.9,2.9S13.6,11,12,11S9.1,9.7,9.1,8.1S10.4,5.2,12,5.2z"/>
	</g>
	<circle class="st2" cx="12" cy="8" r="6.3"/>
	<g>
		<g>
			<path class="st3" d="M11.6,7.1c0.1,0,0.1,0,0.2,0c0.4,0,0.7,0.3,0.7,0.7c0,0.1,0,0.2-0.1,0.3c0.1,0.1,0.2,0.3,0.2,0.5
				c0,0.4-0.3,0.7-0.7,0.7c-0.3,0-0.6-0.2-0.6-0.5c-0.1,0-0.1,0-0.2,0c-0.3,0-0.6-0.3-0.6-0.6"/>
			<path class="st3" d="M10,8.5C9.9,8.6,9.7,8.7,9.6,8.7c-0.1,0-0.3,0-0.4-0.1C9.1,8.9,8.8,9.1,8.5,9.1C8.3,9.1,8.2,9,8.1,8.9
				c0,0,0,0,0,0.1c0,0.4-0.3,0.7-0.7,0.7C6.9,9.7,6.6,9.4,6.6,9c0-0.1,0-0.2,0.1-0.3C6.6,8.6,6.5,8.4,6.5,8.2c0-0.3,0.2-0.5,0.4-0.6
				c0,0,0-0.1,0-0.1C6.9,7.3,7.1,7,7.4,7c0,0,0.1,0,0.1,0"/>
			<path class="st3" d="M9,7.6c0-0.1,0-0.1,0-0.2c0-0.2,0.2-0.4,0.4-0.4c0.1,0,0.1,0,0.2,0C9.6,6.9,9.8,6.8,10,6.8c0,0,0,0,0.1,0
				c0.1-0.2,0.3-0.3,0.5-0.3c0.3,0,0.6,0.3,0.6,0.6c0,0.1,0,0.2-0.1,0.3c0.2,0,0.3,0.2,0.3,0.4c0,0,0,0.1,0,0.1"/>
			<path class="st3" d="M8,8.3C7.8,8.2,7.7,8,7.7,7.9c0,0,0-0.1,0-0.1C7.6,7.6,7.5,7.5,7.5,7.3c0-0.2,0.2-0.5,0.4-0.5
				c0-0.3,0.3-0.5,0.6-0.5c0.2,0,0.4,0.1,0.5,0.3c0.1,0,0.1,0,0.2,0c0.3,0,0.5,0.2,0.6,0.4"/>
			<path class="st3" d="M7.1,7.1C7,7,6.9,6.9,6.9,6.7C6.9,6.3,7.3,6,7.7,6C7.8,6,7.8,6,7.9,6c0-0.3,0.3-0.6,0.7-0.6
				c0.1,0,0.2,0,0.3,0.1c0.2-0.1,0.4-0.2,0.6-0.2c0.3,0,0.7,0.2,0.8,0.5c0.1-0.1,0.3-0.2,0.5-0.2c0.3,0,0.6,0.2,0.7,0.5
				c0,0,0.1,0,0.1,0c0.4,0,0.7,0.3,0.7,0.7c0,0.2-0.1,0.3-0.1,0.4"/>
			<path class="st3" d="M11.6,9.1c-0.8,0.6-1,1.2-1,1.6v0.7H9v-0.2c0-0.9-0.6-1.4-1.2-1.6"/>
			<path class="st4" d="M8.6,9.1c0.3,0.2,0.8,0.6,0.9,0.8"/>
			<path class="st4" d="M11.3,8.7c-0.4,0.3-0.9,0.7-1.2,1.3"/>
			<path class="st4" d="M9.4,10.3c0.1-0.5,0.2-1.1,0.2-1.6"/>
			<path class="st4" d="M10.6,8.4c-0.3,0.3-0.5,1-0.5,1.8"/>
		</g>
	</g>
	<g>
		<g>
			<g>
				<path class="st3" d="M13.3,9.2c1,0.3,2.6,0.3,3.6,0"/>
				<g>
					<path class="st3" d="M15.6,9l0-0.5c0-0.4,0.1-0.7,0.3-1c0.2-0.3,0.3-0.7,0.3-1.1c0-0.3-0.2-0.4-0.4-0.2
						c-0.2,0.1-0.3,0.4-0.4,0.6"/>
					<path class="st3" d="M15.4,5.5c0.1-0.1,0.1-0.2,0.2-0.2C16,5,16,5.8,15.9,6.2"/>
					<path class="st3" d="M14.5,5.3c0.2-0.5,0.4-1,0.6-1c0.2,0,0.4,0.5,0.6,1"/>
					<path class="st3" d="M14.7,9l0-0.5c0-0.4-0.1-0.7-0.3-1C14.1,7.2,14,6.9,14,6.4c0-0.3,0.2-0.4,0.4-0.2c0.2,0.1,0.3,0.4,0.4,0.6
						"/>
					<path class="st3" d="M14.7,9.8l0,1.5c0,0.2,0.1,0.3,0.3,0.3h0.2c0.2,0,0.3-0.1,0.3-0.3l0-1.5"/>
					<path class="st3" d="M14.8,5.5c-0.1-0.1-0.1-0.2-0.2-0.2c-0.4-0.3-0.4,0.4-0.3,0.9"/>
				</g>
				<g>
					<path class="st3" d="M16.7,8.9l0-0.3c0-0.3,0.1-0.7,0.3-1c0.2-0.3,0.3-0.6,0.3-1c0-0.2-0.2-0.3-0.3-0.2
						c-0.1,0.1-0.2,0.2-0.3,0.3"/>
					<path class="st3" d="M16.5,5.8c0.1-0.1,0.1-0.2,0.2-0.2C17.1,5.3,17.1,6,17,6.4"/>
					<path class="st3" d="M16,4.9c0.1-0.2,0.2-0.3,0.3-0.3c0.2,0,0.4,0.4,0.5,0.9"/>
					<path class="st3" d="M16.1,11.4h0.3c0.2,0,0.3-0.1,0.3-0.3l0-1.5"/>
				</g>
				<g>
					<path class="st3" d="M13.5,8.9l0-0.3c0-0.3-0.1-0.7-0.3-1c-0.2-0.3-0.3-0.6-0.3-1c0-0.2,0.2-0.3,0.3-0.2
						c0.1,0.1,0.2,0.2,0.3,0.3"/>
					<path class="st3" d="M13.7,5.8c-0.1-0.1-0.1-0.2-0.2-0.2c-0.4-0.3-0.3,0.4-0.2,0.9"/>
					<path class="st3" d="M14.3,4.9c-0.1-0.2-0.2-0.3-0.3-0.3c-0.2,0-0.4,0.4-0.5,0.9"/>
					<path class="st3" d="M14.2,11.4h-0.3c-0.2,0-0.3-0.1-0.3-0.3l0-1.5"/>
				</g>
			</g>
		</g>
	</g>
</g>
</svg>
