<?xml version="1.0" encoding="utf-8"?>
<!-- Generator: Adobe Illustrator 25.0.0, SVG Export Plug-In . SVG Version: 6.00 Build 0)  -->
<svg version="1.1" id="Capa_1" xmlns="http://www.w3.org/2000/svg" xmlns:xlink="http://www.w3.org/1999/xlink" x="0px" y="0px"
	 viewBox="0 0 24 24" style="enable-background:new 0 0 24 24;" xml:space="preserve">
<style type="text/css">
	.st0{fill:#003DA6;}
	.st1{fill:#BE6017;}
	.st2{fill:#644D98;}
	.st3{fill:none;stroke:#FFFFFF;stroke-width:0.5;stroke-linecap:round;stroke-linejoin:round;stroke-miterlimit:10;}
</style>
<g>
	<g>
		<path id="svg_2_8_" class="st0" d="M12,0.4c-4.3,0-7.7,3.5-7.7,7.7c0,1.4,0.4,2.7,1,3.8c0.1,0.2,0.2,0.4,0.3,0.5L12,23.6l6.4-11.1
			c0.1-0.1,0.2-0.3,0.3-0.5l0.1-0.1c0.6-1.1,1-2.4,1-3.8C19.7,3.9,16.3,0.4,12,0.4z M12,4.3c2.1,0,3.9,1.7,3.9,3.9
			c0,2.1-1.7,3.9-3.9,3.9c-2.1,0-3.9-1.7-3.9-3.9C8.1,6,9.9,4.3,12,4.3z"/>
		<path id="svg_3_8_" class="st1" d="M12,3.3c-2.7,0-4.8,2.2-4.8,4.8c0,2.7,2.2,4.8,4.8,4.8c2.7,0,4.8-2.2,4.8-4.8
			C16.8,5.5,14.7,3.3,12,3.3z M12,5.2c1.6,0,2.9,1.3,2.9,2.9S13.6,11,12,11S9.1,9.7,9.1,8.1S10.4,5.2,12,5.2z"/>
	</g>
	<circle class="st2" cx="12" cy="8" r="6.3"/>
	<g>
		<g>
			<line class="st3" x1="16.1" y1="9.8" x2="7.9" y2="9.8"/>
			<path class="st3" d="M12.9,9.4C12.9,8.7,12.6,8,12,8c-0.6,0-0.9,0.7-0.9,1.4"/>
			<g>
				<path class="st3" d="M8.2,10.3l0.3,1c0.1,0.2,0.3,0.4,0.5,0.4h0.8c0.2,0,0.4-0.1,0.5-0.3l0.1-0.4c0.1-0.3,0.5-0.3,0.6,0l0.2,0.4
					c0.1,0.2,0.3,0.3,0.5,0.3h0.7c0.2,0,0.4-0.1,0.5-0.3L13,11c0.1-0.3,0.5-0.3,0.6,0l0.2,0.4c0.1,0.2,0.3,0.3,0.5,0.3H15
					c0.2,0,0.4-0.1,0.5-0.4l0.3-1"/>
			</g>
			<path class="st3" d="M15.5,9.4c0-0.7-0.4-1.4-0.9-1.4c-0.6,0-0.9,0.7-0.9,1.4"/>
			<path class="st3" d="M10.4,9.4C10.4,8.7,10,8,9.5,8C8.9,8,8.5,8.7,8.5,9.4"/>
			<path class="st3" d="M8.2,8.5C8.2,8.3,8.1,8.1,8.1,7.9V5.7c0-0.7,0.5-1.2,1.2-1.2h5.4c0.7,0,1.2,0.5,1.2,1.2v2.2
				c0,0.2,0,0.4-0.1,0.5"/>
		</g>
	</g>
</g>
</svg>
