<?xml version="1.0" encoding="utf-8"?>
<!-- Generator: Adobe Illustrator 25.0.0, SVG Export Plug-In . SVG Version: 6.00 Build 0)  -->
<svg version="1.1" id="Capa_1" xmlns="http://www.w3.org/2000/svg" xmlns:xlink="http://www.w3.org/1999/xlink" x="0px" y="0px"
	 viewBox="0 0 24 24" style="enable-background:new 0 0 24 24;" xml:space="preserve">
<style type="text/css">
	.st0{fill:#003DA6;}
	.st1{fill:#BE6017;}
	.st2{fill:#A4C524;}
	.st3{fill:none;stroke:#FFFFFF;stroke-width:0.32;stroke-linecap:round;stroke-linejoin:round;stroke-miterlimit:10;}
	.st4{fill:none;stroke:#FFFFFF;stroke-width:0.32;stroke-miterlimit:10;}
</style>
<g>
	<g>
		<path id="svg_2_1_" class="st0" d="M12,0.4c-4.3,0-7.7,3.4-7.7,7.7c0,1.4,0.4,2.6,1,3.8c0.1,0.2,0.2,0.4,0.3,0.5L12,23.6l6.4-11.1
			c0.1-0.1,0.2-0.3,0.3-0.5l0.1-0.1c0.6-1.1,1-2.4,1-3.8C19.7,3.9,16.3,0.4,12,0.4z M12,4.3c2.1,0,3.9,1.7,3.9,3.9
			c0,2.1-1.7,3.9-3.9,3.9c-2.1,0-3.9-1.7-3.9-3.9C8.1,6,9.9,4.3,12,4.3z"/>
		<path id="svg_3_1_" class="st1" d="M12,3.3c-2.7,0-4.8,2.2-4.8,4.8c0,2.7,2.2,4.8,4.8,4.8c2.7,0,4.8-2.2,4.8-4.8
			C16.8,5.5,14.7,3.3,12,3.3z M12,5.3c1.6,0,2.9,1.3,2.9,2.9S13.6,11,12,11S9.1,9.7,9.1,8.1S10.4,5.3,12,5.3z"/>
	</g>
	<circle class="st2" cx="12" cy="7.9" r="6.3"/>
	<g>
		<polyline class="st3" points="9.2,6.3 11.9,4.2 14.6,6.3 		"/>
		<polyline class="st3" points="13.8,5.6 13.8,11.5 10.1,11.5 10.1,5.6 		"/>
		<polygon class="st3" points="10.1,9 7.4,9 8.4,7.9 10.1,7.9 		"/>
		<rect x="8.4" y="9" class="st3" width="1.6" height="2.5"/>
		<polygon class="st3" points="13.8,9 16.4,9 15.4,7.9 13.8,7.9 		"/>
		<rect x="13.8" y="9" class="st3" width="1.6" height="2.5"/>
		<line class="st3" x1="11.9" y1="4.2" x2="11.9" y2="2.6"/>
		<path class="st3" d="M13.4,3.5c-0.5-0.4-0.9,0.4-1.4,0c0-0.2,0-0.5,0-0.7c0.5,0.4,0.9-0.4,1.4,0C13.4,3,13.4,3.2,13.4,3.5z"/>
		<path class="st3" d="M12.5,5.8c0-0.3-0.3-0.6-0.6-0.6c-0.3,0-0.6,0.3-0.6,0.6c0,0.3,0.3,0.6,0.6,0.6C12.3,6.4,12.5,6.1,12.5,5.8z"
			/>
		<g>
			<rect x="10.7" y="7" class="st3" width="0.9" height="0.8"/>
			<rect x="12.2" y="7" class="st3" width="0.9" height="0.8"/>
		</g>
		<g>
			<rect x="10.7" y="8.4" class="st3" width="0.9" height="0.8"/>
			<rect x="12.2" y="8.4" class="st3" width="0.9" height="0.8"/>
		</g>
		<rect x="11.2" y="9.9" class="st3" width="1.6" height="1.6"/>
		<line class="st3" x1="10.8" y1="9.9" x2="13.1" y2="9.9"/>
		<rect x="8.9" y="9.7" class="st3" width="0.7" height="0.6"/>
		<rect x="14.3" y="9.7" class="st3" width="0.7" height="0.6"/>
		<line class="st3" x1="7.7" y1="11.6" x2="16.2" y2="11.6"/>
		<line class="st4" x1="11.9" y1="9.9" x2="11.9" y2="11.6"/>
	</g>
</g>
</svg>
